<svg width="93" height="70" viewBox="0 0 93 70" fill="none" xmlns="http://www.w3.org/2000/svg">
<path d="M20.8933 45.6944C28.6638 45.6944 34.9629 39.4761 34.9629 31.8055C34.9629 24.1349 28.6638 17.9166 20.8933 17.9166C13.1229 17.9166 6.82375 24.1349 6.82375 31.8055C6.82375 39.4761 13.1229 45.6944 20.8933 45.6944Z" fill="#00D5FF"/>
<path d="M43.7564 31.8055H39.5356C39.5356 21.6666 31.1642 13.4028 20.8933 13.4028V9.23608C33.4856 9.23608 43.7564 19.375 43.7564 31.8055Z" fill="#3D248A"/>
<path d="M72.3881 45.6944C80.1585 45.6944 86.4576 39.4761 86.4576 31.8055C86.4576 24.1349 80.1585 17.9166 72.3881 17.9166C64.6176 17.9166 58.3185 24.1349 58.3185 31.8055C58.3185 39.4761 64.6176 45.6944 72.3881 45.6944Z" fill="#FFC700"/>
<path fill-rule="evenodd" clip-rule="evenodd" d="M41.5053 61.875V70H0V61.875C0 56.3195 2.25113 51.25 5.90923 47.5695C8.23071 45.2778 11.326 43.9584 14.6324 43.9584H26.9433C30.1089 43.9584 33.1339 45.1389 35.385 47.2917L35.4554 47.3612C39.1838 51.1112 41.5053 56.25 41.5053 61.875Z" fill="#3D248A"/>
<path fill-rule="evenodd" clip-rule="evenodd" d="M93 61.875V70H51.4947V61.875C51.4947 56.25 53.8162 51.1112 57.5446 47.3612L57.615 47.2917C59.8661 45.0695 62.8911 43.9584 66.0567 43.9584H78.3676C81.674 43.9584 84.7693 45.2084 87.0908 47.5695C90.7489 51.25 93 56.3195 93 61.875Z" fill="#3D248A"/>
<path d="M53.7458 31.8055H49.525C49.525 19.375 59.7958 9.23608 72.3881 9.23608V13.4028C62.1172 13.4028 53.7458 21.6666 53.7458 31.8055Z" fill="#3D248A"/>
<path d="M43.7564 31.8056H39.5356C39.5356 14.3056 54.2383 0 72.3881 0V4.16667C56.5598 4.16667 43.7564 16.5972 43.7564 31.8056Z" fill="#3D248A"/>
</svg>
