<svg width="47" height="57" viewBox="0 0 47 57" fill="none" xmlns="http://www.w3.org/2000/svg">
<ellipse cx="23.5" cy="53.5" rx="21.5" ry="3.5" fill="#E1E1E1"/>
<path d="M43.7979 20.0934C44.4958 25.087 43.3737 30.165 40.6366 34.3996C37.8995 38.6342 33.7302 41.7426 28.8905 43.1569L26.7119 35.702C29.7617 34.8107 32.389 32.852 34.1138 30.1835C35.8386 27.5151 36.5457 24.3151 36.1059 21.1684L43.7979 20.0934Z" fill="#3D248A"/>
<path d="M29.3391 43.0204C25.131 44.3528 20.6101 44.3254 16.4185 42.942C12.2269 41.5587 8.57779 38.8897 5.98946 35.3143C3.40114 31.7389 2.00523 27.4388 2.00001 23.0248C1.9948 18.6108 3.38055 14.3075 5.96043 10.7259C8.5403 7.1444 12.1831 4.46684 16.3714 3.07359C20.5597 1.68033 25.0806 1.64223 29.2918 2.96469C33.503 4.28715 37.1904 6.90292 39.8303 10.4405C42.4701 13.978 43.9282 18.2574 43.9974 22.6708L36.0957 22.7947C36.0525 20.0421 35.1431 17.3732 33.4967 15.1669C31.8503 12.9606 29.5505 11.3292 26.9241 10.5044C24.2976 9.67958 21.4781 9.70334 18.8659 10.5723C16.2537 11.4412 13.9818 13.1112 12.3728 15.3449C10.7637 17.5786 9.89947 20.2626 9.90272 23.0155C9.90597 25.7684 10.7766 28.4503 12.3909 30.6802C14.0052 32.9101 16.281 34.5747 18.8953 35.4374C21.5095 36.3002 24.3291 36.3173 26.9536 35.4863L29.3391 43.0204Z" fill="#FFC700"/>
<line x1="1.29289" y1="45.2929" x2="45.7544" y2="0.831354" stroke="#3D248A" stroke-width="2"/>
</svg>
