<svg width="1440" height="625" viewBox="0 0 1440 625" fill="none" xmlns="http://www.w3.org/2000/svg">
<rect y="128" width="1440" height="401" fill="#3D248A"/>
<path d="M635.928 81.4703L694.05 0.133047L747.571 92.835L635.928 81.4703Z" fill="#00D5FF"/>
<path d="M1308.16 349.71L1377.43 277L1417.61 376.745L1308.16 349.71Z" fill="#FF5784"/>
<path d="M32.1639 393.71L101.434 321L141.605 420.745L32.1639 393.71Z" fill="#FFC700"/>
<g filter="url(#filter0_d_2470_21)">
<rect x="92" y="61" width="1256" height="539" fill="white"/>
</g>
<path d="M453.02 350.783L494.339 301.42L522.664 371.749L453.02 350.783Z" fill="#E1E1E1"/>
<path d="M63.5226 221.149L29.2789 229.005L36.7983 192.145L63.5226 221.149Z" fill="#00D5FF"/>
<path d="M527.675 274.369L538.746 251L550.052 271.102L527.675 274.369Z" fill="#FF5784"/>
<path d="M982.589 571.328L948.145 490.102L1026.32 495.581L982.589 571.328Z" stroke="#E1E1E1" stroke-width="3"/>
<path d="M362.68 151.752C364.612 149.567 366.964 147.634 368.559 145.197C368.727 144.945 368.643 144.609 368.391 144.441C368.139 144.273 367.804 144.357 367.636 144.609C366.04 146.962 363.688 148.895 361.841 150.996C361.673 151.248 361.673 151.584 361.925 151.836C362.177 152.004 362.513 152.004 362.68 151.752Z" fill="#3D248A"/>
<path d="M367.048 159.315C371.415 158.222 375.866 156.71 380.317 155.953C380.653 155.869 380.821 155.617 380.737 155.281C380.653 154.945 380.401 154.777 380.065 154.861C375.614 155.701 371.079 157.13 366.712 158.306C366.376 158.39 366.208 158.726 366.292 158.979C366.46 159.231 366.796 159.399 367.048 159.315Z" fill="#3D248A"/>
<path d="M366.208 167.466C369.231 168.222 372.423 169.23 375.362 170.155C375.698 170.239 375.95 170.071 376.118 169.819C376.202 169.483 376.034 169.23 375.782 169.062C372.843 168.138 369.651 167.13 366.544 166.373C366.208 166.289 365.956 166.457 365.872 166.793C365.704 167.046 365.872 167.382 366.208 167.466Z" fill="#3D248A"/>
<path d="M254.76 166.373C251.988 167.298 248.965 167.802 246.361 169.062C246.109 169.23 245.942 169.566 246.109 169.819C246.277 170.071 246.613 170.239 246.865 170.071C249.469 168.81 252.408 168.306 255.096 167.466C255.432 167.382 255.516 167.046 255.432 166.709C255.432 166.457 255.096 166.289 254.76 166.373Z" fill="#3D248A"/>
<path d="M254.76 157.718C250.393 156.458 245.774 155.533 241.574 154.021C241.238 153.937 240.986 154.105 240.818 154.357C240.734 154.693 240.902 154.945 241.154 155.113C245.438 156.626 250.057 157.634 254.424 158.811C254.76 158.895 255.012 158.727 255.096 158.39C255.264 158.054 255.096 157.802 254.76 157.718Z" fill="#3D248A"/>
<path d="M259.631 151.08C257.363 148.895 255.18 146.458 253.08 144.189C252.828 143.937 252.492 143.937 252.24 144.189C251.988 144.441 251.988 144.777 252.24 145.029C254.34 147.382 256.608 149.819 258.875 152.004C259.127 152.256 259.463 152.256 259.715 152.004C259.883 151.668 259.799 151.332 259.631 151.08Z" fill="#3D248A"/>
<path d="M338.867 255.989C350.892 260.799 368.673 263.359 382.272 258.344C385.839 257.028 390.614 254.697 394.311 251.498C396.875 249.35 398.864 246.843 399.68 244.073C401.147 239.29 396.9 235.664 393.475 234.269C387.345 231.717 377.401 232.219 370.408 236.95C370.15 237.109 370.05 237.525 370.244 237.707C370.402 237.966 370.818 238.065 371 237.871C377.624 233.339 387.116 232.815 392.941 235.225C394.501 235.853 396.226 236.926 397.363 238.469C398.46 239.901 399.117 241.685 398.465 243.698C397.644 246.28 395.76 248.558 393.419 250.624C389.793 253.67 385.129 255.96 381.674 257.235C368.374 262.203 350.893 259.596 339.096 254.892C338.791 254.751 338.457 254.875 338.316 255.18C338.439 255.514 338.562 255.849 338.867 255.989Z" fill="#3D248A"/>
<path d="M451.139 176.365V183.373C451.139 183.833 451.483 184.178 451.943 184.178C452.402 184.178 452.746 183.833 452.746 183.373V176.365C452.746 175.905 452.402 175.561 451.943 175.561C451.483 175.561 451.139 175.905 451.139 176.365Z" fill="#3D248A"/>
<path d="M463.196 186.82H456.191C455.732 186.82 455.388 187.165 455.388 187.625C455.388 188.084 455.732 188.429 456.191 188.429H463.196C463.656 188.429 464 188.084 464 187.625C464 187.165 463.541 186.82 463.196 186.82Z" fill="#3D248A"/>
<path d="M451.139 191.761V198.77C451.139 199.229 451.483 199.574 451.943 199.574C452.402 199.574 452.746 199.229 452.746 198.77V191.761C452.746 191.301 452.402 190.957 451.943 190.957C451.483 190.957 451.139 191.301 451.139 191.761Z" fill="#3D248A"/>
<path d="M447.809 186.82H440.804C440.344 186.82 440 187.165 440 187.625C440 188.084 440.344 188.429 440.804 188.429H447.809C448.268 188.429 448.612 188.084 448.612 187.625C448.612 187.165 448.268 186.82 447.809 186.82Z" fill="#3D248A"/>
<path d="M259.244 273.953V284.174C259.244 284.844 259.746 285.347 260.416 285.347C261.086 285.347 261.589 284.844 261.589 284.174V273.953C261.589 273.282 261.086 272.78 260.416 272.78C259.746 272.78 259.244 273.282 259.244 273.953Z" fill="#3D248A"/>
<path d="M276.828 289.2H266.612C265.943 289.2 265.44 289.703 265.44 290.373C265.44 291.044 265.943 291.546 266.612 291.546H276.828C277.498 291.546 278 291.044 278 290.373C278 289.703 277.33 289.2 276.828 289.2Z" fill="#3D248A"/>
<path d="M259.244 296.405V306.626C259.244 307.297 259.746 307.799 260.416 307.799C261.086 307.799 261.589 307.297 261.589 306.626V296.405C261.589 295.735 261.086 295.232 260.416 295.232C259.746 295.232 259.244 295.735 259.244 296.405Z" fill="#3D248A"/>
<path d="M254.387 289.2H244.172C243.502 289.2 243 289.703 243 290.373C243 291.044 243.502 291.546 244.172 291.546H254.387C255.057 291.546 255.56 291.044 255.56 290.373C255.56 289.703 255.057 289.2 254.387 289.2Z" fill="#3D248A"/>
<path d="M207.493 278.099C191.748 276.941 174.056 272.386 163.991 259.319C158.742 252.455 155.406 243.048 160.335 234.773C162.442 231.21 164.478 227.8 167.353 224.777C170.78 221.361 175.309 218.361 179.603 216.27C194.006 209.313 211.195 208.546 228.224 211.129C253.901 215.02 279.511 226.468 295.325 235.895C295.63 236.036 295.929 235.989 296.146 235.719C296.287 235.414 296.24 235.114 295.97 234.897C280.004 225.4 254.241 213.881 228.377 209.997C211.084 207.384 193.672 208.233 179.046 215.273C174.529 217.445 169.888 220.486 166.391 224.055C163.44 227.043 161.333 230.606 159.191 234.245C154.01 242.867 157.44 252.872 163 260.065C173.223 273.39 191.296 278.121 207.305 279.308C207.645 279.373 207.862 279.103 207.927 278.762C208.068 278.457 207.833 278.164 207.493 278.099Z" fill="#3D248A"/>
<path d="M293.225 201.246C290.621 201.246 288.186 199.818 286.842 197.549C283.147 191.163 276.344 179.398 271.473 170.995C270.633 169.567 270.633 167.718 271.473 166.289C272.313 164.861 273.825 163.936 275.588 163.936H283.987C284.994 163.936 285.834 163.096 285.834 162.088C285.834 161.079 284.994 160.239 283.987 160.239H275.588C272.565 160.239 269.793 161.836 268.365 164.441C266.854 167.046 266.854 170.239 268.365 172.844C273.237 181.247 280.039 193.011 283.735 199.398C285.666 202.759 289.362 204.86 293.309 204.86V201.246H293.225Z" fill="#3D248A"/>
<path d="M340.676 163.936H347.731C349.411 163.936 351.007 164.861 351.846 166.289C352.686 167.718 352.686 169.566 351.846 170.995C346.975 179.482 340.089 191.247 336.393 197.633C335.133 199.818 332.782 201.246 330.178 201.246V204.944C334.042 204.944 337.653 202.927 339.585 199.566C343.28 193.179 350.083 181.415 355.038 172.928C356.55 170.323 356.55 167.13 355.038 164.525C353.526 161.92 350.755 160.323 347.815 160.323H340.76C339.753 160.323 338.913 161.163 338.913 162.172C338.913 163.096 339.669 163.936 340.676 163.936Z" fill="#3D248A"/>
<path d="M328.919 154.861H294.401L303.051 147.634H320.268L328.919 154.861Z" fill="#FF5784"/>
<path d="M318 243.598H305.907L308.93 213.767H314.977L318 243.598Z" fill="#FF5784"/>
<path d="M281.383 154.861H342.104L326.903 216.456L311.954 224.019L296.5 216.456L281.383 154.861Z" fill="#3D248A"/>
<path d="M330.178 252.59H294.401L303.387 237.128H321.276L330.178 252.59Z" fill="#FF5784"/>
<path d="M331.69 250.237H291.713V265.614H331.69V250.237Z" fill="#3D248A"/>
<path d="M232.582 241.786C226.703 241.786 222 246.492 222 252.374C222 258.256 226.703 262.962 232.582 262.962C238.461 262.962 243.164 258.256 243.164 252.374C243.164 246.492 238.377 241.786 232.582 241.786ZM232.582 242.878C237.789 242.878 241.988 247.08 241.988 252.29C241.988 257.5 237.789 261.701 232.582 261.701C227.375 261.701 223.176 257.5 223.176 252.29C223.176 247.164 227.375 242.878 232.582 242.878Z" fill="#3D248A"/>
<path d="M456.787 228.786C454.184 228.786 452 230.887 452 233.576C452 236.181 454.1 238.365 456.787 238.365C459.391 238.365 461.574 236.265 461.574 233.576C461.574 230.887 459.475 228.786 456.787 228.786ZM456.787 229.962C458.803 229.962 460.398 231.559 460.398 233.576C460.398 235.592 458.803 237.189 456.787 237.189C454.772 237.189 453.176 235.592 453.176 233.576C453.26 231.559 454.855 229.962 456.787 229.962Z" fill="#3D248A"/>
<path d="M394.199 196.786C396.467 196.786 398.398 198.635 398.398 200.987C398.398 203.256 396.551 205.189 394.199 205.189C391.932 205.189 390 203.34 390 200.987C390 198.635 391.848 196.786 394.199 196.786Z" fill="#3D248A"/>
<path d="M310.526 174.104L307.166 177.297C306.411 177.97 305.235 177.97 304.563 177.213C303.891 176.457 303.891 175.281 304.647 174.608L311.114 168.39C311.618 167.886 312.458 167.718 313.129 168.054C313.801 168.306 314.221 168.978 314.221 169.735V192.171C314.221 193.179 313.381 194.02 312.374 194.02C311.366 194.02 310.526 193.179 310.526 192.171V174.104Z" fill="white"/>
<defs>
<filter id="filter0_d_2470_21" x="67" y="36" width="1306" height="589" filterUnits="userSpaceOnUse" color-interpolation-filters="sRGB">
<feFlood flood-opacity="0" result="BackgroundImageFix"/>
<feColorMatrix in="SourceAlpha" type="matrix" values="0 0 0 0 0 0 0 0 0 0 0 0 0 0 0 0 0 0 127 0" result="hardAlpha"/>
<feOffset/>
<feGaussianBlur stdDeviation="12.5"/>
<feColorMatrix type="matrix" values="0 0 0 0 0 0 0 0 0 0 0 0 0 0 0 0 0 0 0.15 0"/>
<feBlend mode="normal" in2="BackgroundImageFix" result="effect1_dropShadow_2470_21"/>
<feBlend mode="normal" in="SourceGraphic" in2="effect1_dropShadow_2470_21" result="shape"/>
</filter>
</defs>
</svg>
