<svg width="205" height="80" viewBox="0 0 205 80" fill="none" xmlns="http://www.w3.org/2000/svg">
<rect x="2" y="3" width="197" height="74" fill="#3D248A"/>
<path d="M85.5078 41.6367L87.4648 30.9375H91.543L87.9219 48H83.6562L81.3711 38.2734L79.1328 48H74.8789L71.2461 30.9375H75.3359L77.293 41.6367L79.6367 30.9375H83.1289L85.5078 41.6367ZM107.598 39.8203C107.598 41.4844 107.289 42.957 106.672 44.2383C106.055 45.5195 105.176 46.5078 104.035 47.2031C102.902 47.8906 101.609 48.2344 100.156 48.2344C98.7031 48.2344 97.4141 47.9023 96.2891 47.2383C95.1641 46.5664 94.2852 45.6094 93.6523 44.3672C93.0273 43.125 92.6992 41.6992 92.668 40.0898V39.1289C92.668 37.457 92.9727 35.9844 93.582 34.7109C94.1992 33.4297 95.0781 32.4414 96.2188 31.7461C97.3672 31.0508 98.6719 30.7031 100.133 30.7031C101.578 30.7031 102.867 31.0469 104 31.7344C105.133 32.4219 106.012 33.4023 106.637 34.6758C107.27 35.9414 107.59 37.3945 107.598 39.0352V39.8203ZM103.414 39.1055C103.414 37.4102 103.129 36.125 102.559 35.25C101.996 34.3672 101.188 33.9258 100.133 33.9258C98.0703 33.9258 96.9805 35.4727 96.8633 38.5664L96.8516 39.8203C96.8516 41.4922 97.1289 42.7773 97.6836 43.6758C98.2383 44.5742 99.0625 45.0234 100.156 45.0234C101.195 45.0234 101.996 44.582 102.559 43.6992C103.121 42.8164 103.406 41.5469 103.414 39.8906V39.1055ZM122.938 41.6367L124.895 30.9375H128.973L125.352 48H121.086L118.801 38.2734L116.562 48H112.309L108.676 30.9375H112.766L114.723 41.6367L117.066 30.9375H120.559L122.938 41.6367ZM139.379 43.4648C139.379 42.8633 139.164 42.3945 138.734 42.0586C138.312 41.7227 137.566 41.375 136.496 41.0156C135.426 40.6562 134.551 40.3086 133.871 39.9727C131.66 38.8867 130.555 37.3945 130.555 35.4961C130.555 34.5508 130.828 33.7188 131.375 33C131.93 32.2734 132.711 31.7109 133.719 31.3125C134.727 30.9062 135.859 30.7031 137.117 30.7031C138.344 30.7031 139.441 30.9219 140.41 31.3594C141.387 31.7969 142.145 32.4219 142.684 33.2344C143.223 34.0391 143.492 34.9609 143.492 36H139.391C139.391 35.3047 139.176 34.7656 138.746 34.3828C138.324 34 137.75 33.8086 137.023 33.8086C136.289 33.8086 135.707 33.9727 135.277 34.3008C134.855 34.6211 134.645 35.0312 134.645 35.5312C134.645 35.9688 134.879 36.3672 135.348 36.7266C135.816 37.0781 136.641 37.4453 137.82 37.8281C139 38.2031 139.969 38.6094 140.727 39.0469C142.57 40.1094 143.492 41.5742 143.492 43.4414C143.492 44.9336 142.93 46.1055 141.805 46.957C140.68 47.8086 139.137 48.2344 137.176 48.2344C135.793 48.2344 134.539 47.9883 133.414 47.4961C132.297 46.9961 131.453 46.3164 130.883 45.457C130.32 44.5898 130.039 43.5938 130.039 42.4688H134.164C134.164 43.3828 134.398 44.0586 134.867 44.4961C135.344 44.9258 136.113 45.1406 137.176 45.1406C137.855 45.1406 138.391 44.9961 138.781 44.707C139.18 44.4102 139.379 43.9961 139.379 43.4648ZM158.996 34.1133H153.875V48H149.762V34.1133H144.734V30.9375H158.996V34.1133ZM169.027 44.8125H163.391L162.406 48H158.012L164.27 30.9375H168.137L174.441 48H170.023L169.027 44.8125ZM164.375 41.6367H168.043L166.203 35.7188L164.375 41.6367ZM182.035 41.9766H179.809V48H175.695V30.9375H182.41C184.434 30.9375 186.016 31.3867 187.156 32.2852C188.297 33.1836 188.867 34.4531 188.867 36.0938C188.867 37.2812 188.625 38.2656 188.141 39.0469C187.664 39.8281 186.914 40.4609 185.891 40.9453L189.453 47.8242V48H185.047L182.035 41.9766ZM179.809 38.8008H182.41C183.191 38.8008 183.777 38.5977 184.168 38.1914C184.566 37.7773 184.766 37.2031 184.766 36.4688C184.766 35.7344 184.566 35.1602 184.168 34.7461C183.77 34.3242 183.184 34.1133 182.41 34.1133H179.809V38.8008ZM204.16 34.1133H199.039V48H194.926V34.1133H189.898V30.9375H204.16V34.1133Z" fill="white"/>
<path d="M25.5 14.8853C22.2019 16.7894 19.3111 19.3246 16.9927 22.3459C14.6744 25.3673 12.9738 28.8157 11.9881 32.4942C11.0025 36.1728 10.751 40.0095 11.2481 43.7853C11.7452 47.561 12.9811 51.2019 14.8853 54.5C16.7894 57.7981 19.3246 60.6889 22.3459 63.0072C25.3673 65.3256 28.8157 67.0262 32.4942 68.0118C36.1728 68.9975 40.0095 69.249 43.7853 68.7519C47.561 68.2548 51.2019 67.0189 54.5 65.1147L40 40L25.5 14.8853Z" fill="#FF5784"/>
<path d="M61.7377 41.418C60.5687 39.3933 59.0124 37.6187 57.1575 36.1954C55.3027 34.7721 53.1857 33.7282 50.9274 33.1231C48.6692 32.518 46.3138 32.3636 43.9958 32.6687C41.6779 32.9739 39.4428 33.7326 37.418 34.9016C35.3933 36.0706 33.6187 37.6269 32.1954 39.4817C30.7721 41.3365 29.7282 43.4535 29.1231 45.7118C28.5179 47.9701 28.3636 50.3255 28.6687 52.6434C28.9739 54.9614 29.7326 57.1965 30.9016 59.2212L46.3196 50.3196L61.7377 41.418Z" fill="#00D5FF"/>
<path d="M53.1686 20.299C50.5986 18.8152 47.7614 17.8522 44.8192 17.4648C41.877 17.0774 38.8872 17.2734 36.0207 18.0415C33.1542 18.8096 30.4671 20.1347 28.1127 21.9413C25.7583 23.7479 23.7829 26.0005 22.299 28.5705C20.8152 31.1405 19.8522 33.9777 19.4648 36.9199C19.0775 39.8621 19.2734 42.8519 20.0415 45.7184C20.8096 48.5849 22.1347 51.272 23.9413 53.6264C25.7479 55.9808 28.0005 57.9562 30.5705 59.44L41.8696 39.8695L53.1686 20.299Z" fill="#FFC700"/>
</svg>
