<svg width="493" height="311" viewBox="0 0 493 311" fill="none" xmlns="http://www.w3.org/2000/svg">
<path d="M110.22 144.558C101.248 129.018 81.4671 123.702 65.969 132.699C50.4708 141.695 45.1688 161.528 54.1415 177.068L110.22 144.558Z" fill="#FF5784"/>
<path d="M170.887 260.081L176.801 259.366C179.146 258.854 181.389 260.286 181.899 262.637L182.817 266.829L178.637 267.749L168.338 271.225L164.158 272.145L157.734 260.592L155.083 254.867L166.503 249.449L169.154 255.174L170.887 260.081Z" fill="#FF5784"/>
<path d="M186.692 268.669L165.993 275.416C165.484 275.621 165.178 276.234 165.28 276.745C165.484 277.256 166.095 277.563 166.605 277.461L187.303 270.713C187.813 270.509 188.119 269.896 188.017 269.384C187.813 268.771 187.201 268.464 186.692 268.669Z" fill="#3D248A"/>
<path d="M168.542 252.516C167.625 253.129 166.503 253.538 165.585 254.152C165.076 254.458 164.974 255.072 165.28 255.583C165.585 256.094 166.299 256.196 166.707 255.89C167.625 255.276 168.746 254.867 169.664 254.254C170.174 253.947 170.276 253.232 169.97 252.823C169.664 252.311 169.052 252.209 168.542 252.516Z" fill="#3D248A"/>
<path d="M170.378 257.423C169.46 258.241 168.644 259.059 167.727 259.774C167.319 260.183 167.217 260.797 167.625 261.308C168.033 261.717 168.644 261.819 169.154 261.41C170.072 260.592 170.887 259.774 171.805 258.957C172.213 258.548 172.315 257.934 171.907 257.423C171.499 257.014 170.887 257.014 170.378 257.423Z" fill="#3D248A"/>
<path d="M209.225 222.971L213.507 218.779C215.037 216.939 217.688 216.632 219.523 218.166L222.786 220.824L220.033 224.095L214.119 233.194L211.366 236.568L199.233 231.456L193.625 228.593L199.335 217.245L204.943 220.108L209.225 222.971Z" fill="#FF5784"/>
<path d="M226.864 220.006L214.629 238.101C214.323 238.612 214.425 239.226 214.935 239.532C215.445 239.839 216.056 239.737 216.362 239.226L228.598 221.13C228.904 220.619 228.802 220.006 228.292 219.699C227.884 219.392 227.272 219.495 226.864 220.006Z" fill="#3D248A"/>
<path d="M202.801 218.37C202.495 219.392 201.884 220.415 201.476 221.437C201.272 221.948 201.578 222.562 202.088 222.766C202.597 222.971 203.209 222.664 203.413 222.153C203.821 221.13 204.433 220.108 204.739 219.086C204.943 218.575 204.637 217.961 204.025 217.757C203.515 217.552 202.903 217.859 202.801 218.37Z" fill="#3D248A"/>
<path d="M207.186 221.13C206.982 222.255 206.88 223.482 206.574 224.606C206.472 225.22 206.778 225.731 207.39 225.833C208.001 225.935 208.511 225.629 208.613 225.015C208.817 223.891 209.021 222.664 209.225 221.437C209.327 220.824 208.919 220.312 208.409 220.21C207.9 220.21 207.288 220.619 207.186 221.13Z" fill="#3D248A"/>
<path d="M85.7495 106.936C88.5025 112.865 86.7692 120.431 80.3456 120.84C79.224 120.942 78.1024 120.533 77.0828 120.124C74.6357 119.102 73.1063 117.261 71.9847 115.012C70.7612 112.661 69.9455 109.901 68.9259 107.243C68.8239 106.936 68.4161 106.731 68.1102 106.834C67.8043 106.936 67.6004 107.345 67.7024 107.652C68.722 110.31 69.5377 113.172 70.7612 115.523C72.0867 117.977 73.8201 120.124 76.573 121.146C77.7965 121.657 79.1221 121.964 80.3456 121.862C87.6868 121.351 89.93 112.968 86.7692 106.118C86.6672 105.811 86.2594 105.709 85.9535 105.811C85.7496 106.22 85.6476 106.629 85.7495 106.936Z" fill="#3D248A"/>
<path d="M68.4162 106.936C66.9887 106.834 65.3574 106.629 64.3377 105.505C62.9103 103.971 62.8083 101.006 64.9495 100.189C65.9691 99.7796 66.9887 99.984 68.0083 100.086C68.3142 100.086 68.6201 99.8818 68.7221 99.4729C68.7221 99.1662 68.5182 98.8595 68.1103 98.8595C66.8868 98.7572 65.6632 98.5528 64.5417 99.0639C61.5848 100.291 61.4828 104.278 63.522 106.425C64.7456 107.754 66.6829 108.163 68.4162 108.163C68.7221 108.163 69.028 107.958 69.028 107.549C69.028 107.243 68.824 106.936 68.4162 106.936Z" fill="#3D248A"/>
<path d="M78.9182 240.35V281.55C78.9182 282.164 79.428 282.572 79.9378 282.572C80.5495 282.572 80.9574 282.061 80.9574 281.55V240.35C80.9574 239.737 80.4476 239.328 79.9378 239.328C79.428 239.328 78.9182 239.839 78.9182 240.35Z" fill="#3D248A"/>
<path d="M79.0202 237.079L101.044 282.061C101.35 282.573 101.961 282.777 102.471 282.573C102.981 282.266 103.185 281.652 102.981 281.141L80.9574 236.159C80.6515 235.648 80.0398 235.443 79.53 235.648C79.0202 235.852 78.8162 236.465 79.0202 237.079Z" fill="#3D248A"/>
<path d="M79.0202 236.056L56.9966 281.039C56.6907 281.55 56.9966 282.164 57.5064 282.47C58.0162 282.777 58.6279 282.47 58.9338 281.959L80.9575 236.976C81.2634 236.465 80.9575 235.852 80.4477 235.545C79.9379 235.341 79.3261 235.545 79.0202 236.056Z" fill="#3D248A"/>
<path d="M149.068 0.920099V38.133C149.068 38.6441 149.476 39.0531 149.985 39.0531C150.495 39.0531 150.903 38.6441 150.903 38.133V0.920099C150.903 0.408933 150.495 0 149.985 0C149.476 0 149.068 0.408933 149.068 0.920099Z" fill="#3D248A"/>
<path d="M224.111 252.925L239.304 284.004C239.61 284.515 240.221 284.719 240.731 284.515C241.241 284.208 241.445 283.595 241.241 283.084L226.049 252.005C225.743 251.494 225.131 251.289 224.621 251.494C224.009 251.8 223.806 252.414 224.111 252.925Z" fill="#3D248A"/>
<path d="M298.747 192.198L343.712 284.004C344.018 284.515 344.63 284.719 345.14 284.515C345.649 284.208 345.853 283.595 345.649 283.084L300.684 191.176C300.379 190.665 299.767 190.46 299.257 190.665C298.747 190.972 298.543 191.585 298.747 192.198Z" fill="#3D248A"/>
<path d="M194.339 191.176L171.907 237.079C171.601 237.59 171.907 238.203 172.417 238.51C172.927 238.817 173.538 238.51 173.844 237.999L196.276 192.096C196.582 191.585 196.276 190.972 195.766 190.665C195.256 190.46 194.542 190.665 194.339 191.176Z" fill="#3D248A"/>
<path d="M154.778 272.043L149.374 283.084C149.068 283.595 149.374 284.208 149.883 284.515C150.393 284.822 151.005 284.515 151.311 284.004L156.715 272.963C157.021 272.451 156.715 271.838 156.205 271.531C155.695 271.327 155.083 271.531 154.778 272.043Z" fill="#3D248A"/>
<path d="M298.747 191.176L253.782 282.981C253.476 283.493 253.782 284.106 254.292 284.413C254.802 284.719 255.414 284.413 255.719 283.902L300.684 192.096C300.99 191.585 300.684 190.972 300.175 190.665C299.665 190.46 299.053 190.665 298.747 191.176Z" fill="#3D248A"/>
<path d="M121.64 209.68C117.867 212.134 95.334 225.833 69.7417 221.744C61.1769 220.415 56.0788 216.837 53.02 212.645C45.9846 202.831 50.4709 189.029 50.4709 189.029C50.5729 188.722 50.7768 188.62 51.0827 188.62H118.173C129.389 188.62 139.687 194.754 145.193 204.569C153.86 220.108 165.789 241.782 165.789 241.782C165.891 241.884 165.891 242.088 165.891 242.293C165.891 242.497 165.687 242.599 165.585 242.702L148.354 251.8C148.048 251.903 147.742 251.903 147.538 251.596L121.64 209.68ZM51.6945 189.949C50.9807 192.301 48.2278 203.649 54.1415 212.032C56.9965 216.019 61.8906 219.29 70.0475 220.619C97.5771 225.015 121.538 208.351 121.538 208.351C121.64 208.249 121.844 208.249 122.048 208.249C122.252 208.249 122.354 208.351 122.456 208.556L148.456 250.471L164.668 241.986L144.377 205.284C139.177 195.879 129.287 190.051 118.479 190.051H51.6945V189.949Z" fill="#3D248A"/>
<path d="M193.727 214.792L156.001 195.061C155.695 194.856 155.593 194.55 155.695 194.243C155.899 193.936 156.205 193.834 156.511 193.936L194.746 213.974C195.052 214.076 195.154 214.485 195.052 214.792L189.037 229.309C188.935 229.513 188.833 229.616 188.629 229.616C188.425 229.718 188.323 229.616 188.119 229.616L157.836 213.361C157.53 213.156 157.429 212.849 157.53 212.543C157.734 212.236 158.04 212.134 158.346 212.236L188.017 228.184L193.727 214.792Z" fill="#3D248A"/>
<path d="M65.5613 96.4058C65.5613 99.5751 75.5535 107.14 86.3614 106.629C96.0478 106.118 97.5772 90.3741 86.3614 87.6138C73.1064 84.3423 65.5613 96.4058 65.5613 96.4058Z" fill="#3D248A"/>
<path d="M69.0279 99.5752C68.0083 99.5752 67.0907 99.6774 66.0711 99.8819C63.624 100.495 61.6867 102.949 63.624 105.3C65.2554 107.243 71.577 108.061 69.3338 111.945C67.7025 114.603 63.8279 114.297 61.2789 113.683C55.1612 112.252 50.8788 107.038 49.9612 101.211C49.0435 95.2814 54.1416 89.1474 59.8514 87.9206C64.7456 86.8983 71.1691 88.6362 72.3927 94.0546L69.0279 99.5752Z" fill="#3D248A"/>
<path d="M55.671 105.914C49.9611 106.22 45.067 107.345 40.5807 111.23C35.5846 115.626 34.8708 123.804 41.1925 127.485C45.7807 130.143 52.2043 128.916 56.3847 125.951C57.8122 124.929 59.2396 123.804 60.3612 122.373C60.6671 121.862 60.973 121.453 61.1769 120.942C61.2789 120.737 61.5847 119.92 61.4828 120.226C61.0749 122.169 60.973 124.213 62.2985 125.849C65.1534 129.427 70.8632 127.076 72.1887 123.395C73.7182 118.999 71.475 115.421 69.7417 111.536L55.671 105.914Z" fill="#3D248A"/>
<path d="M82.8947 133.21C82.8947 133.414 82.8947 133.619 82.8947 133.823C82.7928 134.641 82.4869 135.663 81.7731 136.379C81.2633 136.89 80.6516 137.299 79.9378 137.299C78.3065 137.299 77.2868 136.379 76.6751 135.05C75.9613 133.21 76.0633 130.654 76.3692 129.325C76.4711 129.018 76.777 128.814 77.0829 128.814C77.3888 128.916 77.5927 129.223 77.5927 129.529C77.2868 130.756 77.1849 132.903 77.7966 134.539C78.2045 135.459 78.8163 136.072 79.8359 136.072C80.3457 136.072 80.7535 135.766 80.9574 135.357C81.2633 134.846 81.4673 134.232 81.5692 133.721C81.5692 133.312 81.5692 132.903 81.4673 132.494C81.4673 132.29 81.2633 132.085 81.2633 131.881C81.2633 131.676 81.2633 131.574 81.2633 131.472C81.3653 131.267 81.4673 131.165 81.5692 131.063C81.6712 130.961 81.8751 130.961 82.181 131.063C82.3849 131.165 82.5888 131.267 82.7927 131.472C83.0986 131.676 83.3026 132.085 83.5065 132.29C84.1183 132.801 84.6281 133.414 85.4438 133.619C85.9536 133.823 86.5653 133.823 87.0751 133.721C87.2791 133.619 87.5849 133.517 87.6869 133.312C87.8908 133.108 87.8908 132.801 87.7889 132.392C87.5849 131.267 86.8712 130.756 86.1575 129.938C85.9536 129.632 85.9536 129.325 86.2594 129.018C86.5653 128.814 86.8712 128.814 87.1771 129.12C87.9928 130.041 88.7065 130.756 89.0124 132.085C89.2163 132.903 89.0124 133.517 88.7065 134.028C88.4006 134.437 87.8908 134.743 87.381 134.846C86.6673 135.05 85.7496 134.948 85.0359 134.641C84.2202 134.334 83.5065 133.823 82.8947 133.21Z" fill="white"/>
<path d="M76.9809 180.953L127.758 169.4C128.064 169.298 128.471 169.503 128.471 169.912C128.573 170.218 128.369 170.627 127.962 170.627L76.8789 182.282C76.675 182.282 76.4711 182.282 76.3691 182.179C76.3691 182.179 57.7102 164.902 50.267 151.101C48.6356 148.034 47.514 145.171 47.3101 142.717C47.0042 140.059 47.616 137.81 49.4513 136.175C56.1807 130.041 63.522 132.699 69.8436 138.321C78.1025 145.682 84.73 157.95 85.9535 160.199L127.86 156.826C128.166 156.826 128.471 157.03 128.573 157.439C128.573 157.746 128.369 158.052 127.962 158.155L85.5457 161.528C85.3417 161.528 85.0359 161.426 84.9339 161.222C84.9339 161.222 78.0005 147.318 68.9259 139.344C63.1141 134.232 56.3847 131.574 50.165 137.197C48.6356 138.526 48.2277 140.468 48.4317 142.615C48.7376 144.967 49.7572 147.727 51.2866 150.589C58.22 163.164 74.7377 178.908 76.9809 180.953Z" fill="#3D248A"/>
<path d="M204.127 177.068H127.86V181.668H204.127V177.068Z" fill="#3D248A"/>
<path d="M215.547 144.558H165.382L153.86 177.068H204.127L215.547 144.558Z" fill="#3D248A"/>
<path d="M128.471 157.235C129.593 152.634 132.448 148.545 136.832 146.5C137.75 146.091 139.381 145.682 140.809 145.887C141.523 145.989 142.134 146.193 142.542 146.705C142.746 147.011 142.848 147.42 142.848 147.931C142.746 148.954 142.032 149.465 141.217 149.772C140.197 150.181 138.974 150.283 137.954 150.487C135.201 151.203 133.06 153.043 132.244 155.906C132.142 156.212 132.346 156.621 132.652 156.723C132.958 156.826 133.366 156.621 133.468 156.315C134.181 153.963 136.017 152.43 138.26 151.816C139.279 151.51 140.503 151.407 141.625 150.998C142.848 150.487 143.868 149.669 144.072 148.034C144.174 147.114 143.97 146.398 143.562 145.887C143.154 145.376 142.644 144.967 141.93 144.762C140.197 144.251 137.648 144.66 136.323 145.273C131.53 147.522 128.471 151.918 127.248 156.928C127.146 157.235 127.35 157.644 127.656 157.644C128.064 157.746 128.37 157.541 128.471 157.235Z" fill="#3D248A"/>
<path d="M133.366 156.519C136.73 154.781 141.013 153.35 144.479 155.394C145.397 155.906 146.213 156.417 146.621 157.337C147.232 158.564 146.926 160.302 145.397 160.404C144.887 160.404 144.275 160.097 143.766 159.79C143.052 159.382 142.44 158.87 141.828 158.564C140.401 157.848 138.77 157.848 137.24 157.644C136.934 157.644 136.628 157.848 136.526 158.257C136.526 158.564 136.73 158.87 137.138 158.973C138.566 159.075 139.993 159.075 141.217 159.688C141.93 159.995 142.644 160.711 143.46 161.119C144.072 161.528 144.785 161.733 145.499 161.631C147.946 161.426 148.66 158.768 147.742 156.723C147.232 155.497 146.111 154.781 145.091 154.168C141.217 151.918 136.424 153.35 132.754 155.292C132.448 155.497 132.346 155.803 132.448 156.11C132.754 156.519 133.06 156.621 133.366 156.519Z" fill="#3D248A"/>
<path d="M136.934 158.87C139.177 159.893 140.911 160.711 141.523 163.471C141.624 163.88 141.726 164.493 141.523 165.004C141.421 165.413 141.217 165.72 140.809 165.822C140.503 165.924 140.197 165.72 139.993 165.413C139.585 165.107 139.177 164.595 138.872 164.289C137.648 163.266 136.119 162.857 134.691 162.449C134.385 162.346 133.977 162.551 133.977 162.857C133.875 163.164 134.079 163.573 134.385 163.573C135.711 163.88 137.036 164.289 138.158 165.107C138.566 165.413 139.075 166.027 139.585 166.436C140.095 166.742 140.605 166.947 141.217 166.845C141.93 166.64 142.44 166.231 142.746 165.515C143.052 164.698 143.052 163.675 142.848 162.96C142.032 159.893 140.197 158.87 137.546 157.644C137.24 157.541 136.832 157.644 136.73 157.95C136.424 158.359 136.628 158.666 136.934 158.87Z" fill="#3D248A"/>
<path d="M95.4359 128.303C97.2712 125.849 99.7183 124.724 102.063 124.827C104.51 124.929 106.856 126.36 108.589 128.814C112.463 134.334 112.158 142.002 112.565 148.443C112.565 148.749 112.871 149.056 113.177 149.056C113.483 149.056 113.789 148.749 113.789 148.443C113.483 141.695 113.585 133.823 109.609 128.098C107.569 125.236 104.816 123.702 102.063 123.6C99.3105 123.498 96.4555 124.725 94.3143 127.587C94.1104 127.894 94.2124 128.303 94.4163 128.507C94.8241 128.609 95.232 128.609 95.4359 128.303Z" fill="#3D248A"/>
<path d="M151.821 139.037C149.272 136.072 146.825 132.699 144.785 129.325C144.581 129.018 144.174 128.916 143.97 129.121C143.664 129.325 143.562 129.734 143.766 129.938C145.907 133.312 148.354 136.788 150.903 139.753C151.107 140.059 151.515 140.059 151.821 139.855C152.025 139.651 152.025 139.242 151.821 139.037Z" fill="#3D248A"/>
<path d="M162.832 135.152C161.303 127.485 159.264 120.022 158.142 112.354C158.142 112.048 157.734 111.741 157.429 111.843C157.123 111.843 156.817 112.252 156.919 112.559C157.938 120.328 160.08 127.791 161.609 135.459C161.711 135.766 162.017 135.97 162.323 135.97C162.629 135.766 162.832 135.459 162.832 135.152Z" fill="#3D248A"/>
<path d="M174.966 133.823C175.986 129.529 177.311 125.236 178.738 121.044C178.84 120.737 178.637 120.328 178.331 120.226C178.025 120.124 177.617 120.328 177.515 120.635C176.087 124.827 174.762 129.223 173.742 133.517C173.64 133.823 173.844 134.232 174.252 134.232C174.558 134.334 174.864 134.13 174.966 133.823Z" fill="#3D248A"/>
<path d="M189.954 157.439C189.444 157.235 188.731 157.337 188.119 157.643C187.405 158.052 186.59 158.87 186.182 159.995C185.774 161.119 185.774 162.244 186.08 163.062C186.284 163.675 186.691 164.186 187.303 164.391C187.813 164.595 188.527 164.493 189.139 164.186C189.852 163.777 190.668 162.96 191.076 161.835C191.484 160.71 191.484 159.586 191.178 158.768C190.974 158.155 190.566 157.643 189.954 157.439ZM189.546 158.564C189.75 158.666 189.954 158.87 190.056 159.177C190.26 159.79 190.26 160.608 189.954 161.324C189.648 162.142 189.139 162.755 188.629 163.062C188.323 163.164 188.119 163.266 187.915 163.164C187.711 163.062 187.507 162.857 187.405 162.551C187.201 161.937 187.201 161.119 187.507 160.404C187.813 159.586 188.323 158.973 188.833 158.666C189.037 158.564 189.342 158.461 189.546 158.564Z" fill="white"/>
<path d="M408.458 227.264C410.701 216.223 417.838 194.243 440.576 185.553C450.976 181.566 464.944 186.678 463.415 200.173C462.905 204.773 460.458 208.658 457.297 211.929C454.238 215.201 450.364 217.961 446.999 220.312C441.289 224.402 434.254 228.798 428.238 234.114C422.325 239.328 417.328 245.257 415.697 252.516C415.595 252.823 415.289 253.027 414.983 253.027C414.677 252.925 414.473 252.618 414.473 252.311C416.207 244.848 421.305 238.612 427.423 233.194C433.438 227.878 440.576 223.379 446.285 219.29C449.65 216.939 453.321 214.281 456.38 211.009C459.337 207.84 461.682 204.262 462.191 199.968C463.619 187.598 450.67 182.997 441.085 186.678C413.658 197.208 409.477 227.469 408.866 232.989C408.764 233.603 408.764 233.909 408.764 233.909C408.662 234.421 408.152 234.421 408.05 234.421C408.05 234.421 407.54 234.318 407.54 233.807C407.54 224.197 406.113 219.699 403.462 216.121C401.932 214.076 399.791 213.667 397.752 214.485C394.489 215.814 391.532 220.006 391.532 225.731C391.532 234.932 394.693 244.644 400.199 252.005C400.403 252.311 400.301 252.72 400.097 252.925C399.791 253.129 399.383 253.027 399.179 252.823C393.571 245.257 390.207 235.239 390.207 225.731C390.207 219.495 393.571 214.792 397.242 213.361C399.791 212.338 402.544 212.849 404.481 215.405C406.521 218.268 407.846 221.539 408.458 227.264Z" fill="#3D248A"/>
<path d="M410.599 252.516C410.395 233.398 427.015 210.498 443.431 202.728C443.736 202.626 443.838 202.217 443.736 201.911C443.634 201.604 443.227 201.502 442.921 201.604C426.097 209.578 409.171 232.989 409.375 252.516C409.375 252.823 409.681 253.129 409.987 253.129C410.293 253.129 410.599 252.823 410.599 252.516Z" fill="#3D248A"/>
<path d="M400.301 229.922C401.626 235.034 402.646 239.839 403.258 245.053C403.258 245.36 403.564 245.666 403.971 245.564C404.277 245.564 404.583 245.257 404.481 244.848C403.87 239.532 402.85 234.625 401.524 229.513C401.422 229.207 401.117 229.002 400.811 229.104C400.403 229.207 400.199 229.513 400.301 229.922Z" fill="#3D248A"/>
<path d="M418.348 251.903C418.144 252.107 418.144 252.516 418.348 252.72C418.552 252.925 418.858 253.027 419.164 252.823C419.164 252.823 428.034 247.302 439.352 252.311C442.207 253.538 444.042 253.232 445.164 252.311C446.184 251.391 446.591 249.858 446.285 248.018C445.878 245.564 444.246 242.702 441.493 241.168C438.536 239.43 434.968 239.737 431.399 241.27C426.403 243.315 421.305 247.915 418.348 251.903ZM421.101 250.471C424.67 249.04 431.705 247.404 439.964 251.085C442.105 252.005 443.634 252.005 444.45 251.289C445.266 250.676 445.368 249.449 445.164 248.12C444.858 245.973 443.329 243.519 440.983 242.088C438.332 240.555 435.172 240.861 432.011 242.19C428.034 244.031 423.956 247.2 421.101 250.471Z" fill="#00D5FF"/>
<path d="M394.591 253.027C394.795 253.129 395.101 253.129 395.305 252.925C395.509 252.72 395.509 252.414 395.407 252.209C395.407 252.209 391.43 243.111 382.865 242.906C380.622 242.804 378.787 243.622 377.665 244.644C376.748 245.462 376.238 246.586 376.34 247.609C376.442 248.631 377.054 249.756 378.481 250.574C380.112 251.494 381.744 251.698 383.579 251.698C385.211 251.698 386.944 251.494 388.677 251.494C390.92 251.494 392.858 252.209 394.591 253.027ZM393.469 251.187C392.042 248.733 388.575 244.337 382.865 244.133C380.928 244.031 379.399 244.746 378.481 245.666C377.971 246.178 377.665 246.893 377.665 247.507C377.767 248.222 378.277 248.938 379.195 249.449C380.622 250.267 382.152 250.471 383.681 250.471C385.312 250.471 387.046 250.267 388.881 250.267C390.411 250.267 392.042 250.676 393.469 251.187Z" fill="#3D248A"/>
<path d="M340.245 27.0918H231.147C230.637 27.0918 230.127 27.5007 230.127 28.1141V171.956C230.127 172.467 230.535 172.979 231.147 172.979H340.245C340.755 172.979 341.265 172.57 341.265 171.956V28.0119C341.265 27.5007 340.755 27.0918 340.245 27.0918ZM232.166 29.0342H339.328V170.934H232.166V29.0342Z" fill="#3D248A"/>
<path d="M410.905 27.3985H351.767C351.257 27.3985 350.748 27.8074 350.748 28.4208V172.263C350.748 172.774 351.155 173.285 351.767 173.285H410.905C411.415 173.285 411.924 172.876 411.924 172.263V28.3186C411.924 27.8074 411.415 27.3985 410.905 27.3985ZM352.685 29.3409H409.885V171.241H352.685V29.3409Z" fill="#3D248A"/>
<path d="M492.27 294.227H0.611769C0.305884 294.227 0 294.534 0 294.84V309.46C0 309.767 0.305884 310.073 0.611769 310.073H492.27C492.576 310.073 492.882 309.767 492.882 309.46V294.84C492.882 294.534 492.576 294.227 492.27 294.227ZM491.658 308.744H1.22354V295.454H491.658V308.744Z" fill="#3D248A"/>
<path d="M351.971 40.4844H410.905C411.313 40.4844 411.517 40.1777 411.517 39.871C411.517 39.462 411.211 39.2576 410.905 39.2576H351.971C351.563 39.2576 351.359 39.5643 351.359 39.871C351.359 40.1777 351.665 40.4844 351.971 40.4844Z" fill="#3D248A"/>
<path d="M411.517 49.3787C411.517 49.7876 411.211 49.9921 410.905 49.9921H351.971C351.563 49.9921 351.359 49.6854 351.359 49.3787C351.359 48.9697 351.665 48.7653 351.971 48.7653H410.905C411.313 48.7653 411.517 48.9697 411.517 49.3787Z" fill="#3D248A"/>
<path d="M351.971 59.6019H410.905C411.313 59.6019 411.517 59.2952 411.517 58.9885C411.517 58.5796 411.211 58.3751 410.905 58.3751H351.971C351.563 58.3751 351.359 58.6818 351.359 58.9885C351.359 59.2952 351.665 59.6019 351.971 59.6019Z" fill="#3D248A"/>
<path d="M351.971 69.1096H410.905C411.313 69.1096 411.517 68.8029 411.517 68.4962C411.517 68.0873 411.211 67.8828 410.905 67.8828H351.971C351.563 67.8828 351.359 68.1895 351.359 68.4962C351.359 68.9051 351.665 69.1096 351.971 69.1096Z" fill="#3D248A"/>
<path d="M351.971 78.7195H410.905C411.313 78.7195 411.517 78.4128 411.517 78.1061C411.517 77.6972 411.211 77.4927 410.905 77.4927H351.971C351.563 77.4927 351.359 77.7994 351.359 78.1061C351.359 78.4128 351.665 78.7195 351.971 78.7195Z" fill="#3D248A"/>
<path d="M351.767 88.3295H410.701C411.109 88.3295 411.313 88.0228 411.313 87.7161C411.313 87.3071 411.007 87.1027 410.701 87.1027H351.767C351.359 87.1027 351.155 87.4094 351.155 87.7161C351.053 88.0228 351.359 88.3295 351.767 88.3295Z" fill="#3D248A"/>
<path d="M351.971 97.8371H410.905C411.313 97.8371 411.517 97.5304 411.517 97.2237C411.517 96.8148 411.211 96.6104 410.905 96.6104H351.971C351.563 96.6104 351.359 96.917 351.359 97.2237C351.359 97.5304 351.665 97.8371 351.971 97.8371Z" fill="#3D248A"/>
<path d="M150.087 56.3305C154.064 56.3305 157.327 59.602 157.327 63.5891C157.327 67.5762 154.064 70.8476 150.087 70.8476C146.111 70.8476 142.848 67.5762 142.848 63.5891C142.746 59.602 146.009 56.3305 150.087 56.3305Z" fill="#FFC700"/>
<path d="M179.656 62.3622C179.656 46.0049 166.401 32.7146 150.087 32.7146C133.773 32.7146 120.518 46.0049 120.518 62.3622H179.656Z" fill="#3D248A"/>
<path d="M391.328 258.752H429.462L419.877 284.924H400.913L391.328 258.752Z" fill="#FFC700"/>
<path d="M340.653 154.065C326.277 146.091 316.284 144.047 306.394 135.05C297.218 126.667 292.629 115.728 289.571 104.38C289.469 104.073 289.163 103.869 288.755 103.971C288.449 104.073 288.245 104.38 288.347 104.789C291.508 116.444 296.198 127.587 305.579 136.072C315.571 145.171 325.563 147.216 340.042 155.19C340.347 155.394 340.755 155.292 340.959 154.985C341.061 154.679 340.959 154.27 340.653 154.065Z" fill="#3D248A"/>
<path d="M318.222 142.717C316.794 132.29 316.081 121.249 316.794 110.719C316.794 110.31 316.59 110.003 316.183 110.003C315.775 110.003 315.469 110.207 315.469 110.616C314.755 121.249 315.469 132.29 316.896 142.82C316.896 143.126 317.304 143.433 317.61 143.331C318.018 143.433 318.324 143.126 318.222 142.717Z" fill="#3D248A"/>
<path d="M298.441 126.054C293.445 124.622 286.41 125.542 281.72 127.485C281.414 127.587 281.21 127.996 281.414 128.303C281.516 128.609 281.924 128.814 282.229 128.609C286.716 126.769 293.445 125.849 298.135 127.178C298.441 127.28 298.849 127.076 298.951 126.769C298.951 126.565 298.747 126.156 298.441 126.054Z" fill="#3D248A"/>
<path d="M328.214 93.6456C329.234 96.4059 328.52 100.495 325.869 103.46C323.218 106.527 319.241 107.856 316.183 107.345C315.163 104.585 315.877 100.597 318.63 97.5304C321.179 94.5657 325.155 93.2366 328.214 93.6456Z" fill="#00D5FF"/>
<path d="M300.481 85.5691C304.967 85.3647 310.575 87.9205 314.143 92.7255C317.712 97.6326 318.222 103.562 316.488 107.447C312.104 107.652 306.394 105.096 302.826 100.188C299.257 95.4858 298.645 89.454 300.481 85.5691Z" fill="#00D5FF"/>
<path d="M260.919 110.31C265.406 110.105 271.014 112.661 274.582 117.466C278.151 122.373 278.661 128.303 276.927 132.188C272.543 132.392 266.833 129.836 263.265 124.929C259.798 120.226 259.186 114.194 260.919 110.31Z" fill="#00D5FF"/>
<path d="M264.59 88.8406C268.261 86.4892 274.48 86.0803 280.088 88.5339C285.696 91.0897 289.265 95.9969 289.775 100.291C286.104 102.642 279.884 103.051 274.276 100.495C268.77 98.0416 265.1 93.1344 264.59 88.8406Z" fill="#00D5FF"/>
<path d="M305.375 107.345C306.904 109.39 307.312 112.968 305.885 116.137C304.457 119.306 301.5 121.351 298.849 121.657C297.32 119.613 296.912 116.035 298.339 112.865C299.767 109.798 302.724 107.652 305.375 107.345Z" fill="#00D5FF"/>
<path d="M293.445 153.656C293.241 150.385 295.179 146.296 298.951 143.842C302.724 141.286 307.414 140.98 310.473 142.309C310.677 145.478 308.739 149.567 304.967 152.123C301.194 154.679 296.504 154.985 293.445 153.656Z" fill="#00D5FF"/>
<path d="M290.896 84.9557C293.037 86.4892 294.465 89.7607 294.057 93.2366C293.649 96.7126 291.508 99.5751 289.061 100.597C287.022 99.0639 285.492 95.7925 285.9 92.3165C286.308 88.9428 288.551 86.0803 290.896 84.9557Z" fill="#00D5FF"/>
<path d="M337.085 117.261C337.696 120.431 336.269 124.724 332.904 127.689C329.438 130.654 324.849 131.574 321.587 130.552C320.975 127.383 322.402 123.089 325.869 120.124C329.234 117.159 333.822 116.239 337.085 117.261Z" fill="#00D5FF"/>
<path d="M266.221 154.27C263.672 150.692 263.163 144.66 265.712 139.446C268.261 134.13 273.359 130.756 277.743 130.347C280.19 133.926 280.802 139.855 278.253 145.171C275.704 150.385 270.708 153.759 266.221 154.27Z" fill="#00D5FF"/>
<path d="M327.5 187.905H142.644V191.687H327.5V187.905Z" fill="#3D248A"/>
<path d="M102.063 232.785H58.0161V240.452H102.063V232.785Z" fill="#00D5FF"/>
</svg>
