<svg width="65" height="58" viewBox="0 0 65 58" fill="none" xmlns="http://www.w3.org/2000/svg">
<path fill-rule="evenodd" clip-rule="evenodd" d="M22 14.5556C26.2355 14.5556 29.6486 18.0123 29.6486 22.3019C29.6486 26.5916 26.2355 30.0483 22 30.0483C17.7645 30.0483 14.3514 26.5916 14.3514 22.3019C14.3514 18.0123 17.7645 14.5556 22 14.5556ZM26.8935 0.562234C23.686 -0.187411 20.314 -0.187411 17.1065 0.562234L16.0374 5.51822C14.886 5.93469 13.8168 6.4761 12.7888 7.1008L8.30654 4.85187C5.71589 6.97586 3.61869 9.59962 2.17944 12.6398L5.34579 16.5963C4.9757 17.7624 4.68785 18.9702 4.52336 20.1779L0 22.3019C0 25.6337 0.740187 28.9655 2.17944 31.964L7.19626 31.9224C7.85421 32.9636 8.59439 33.9214 9.45794 34.796L8.30654 39.7104C10.8972 41.7927 13.8991 43.2504 17.1065 44L20.1907 40.0019C21.3832 40.1268 22.6168 40.1268 23.8093 40.0019L26.8935 44C30.1009 43.2504 33.1439 41.7927 35.6935 39.7104L34.5421 34.796C35.4056 33.9214 36.1458 32.9636 36.8037 31.9224L41.8206 31.964C43.2598 28.9655 44 25.6337 44 22.3019L39.4766 20.1363C39.3121 18.9285 39.0654 17.7208 38.6542 16.5547L41.8206 12.5982C40.3813 9.59962 38.2841 6.93422 35.7346 4.85187L31.2112 7.1008C30.1832 6.4761 29.0729 5.93469 27.9626 5.51822L26.8935 0.562234Z" fill="#FF5784"/>
<path fill-rule="evenodd" clip-rule="evenodd" d="M53 9.93942C55.3103 9.93942 57.172 11.8249 57.172 14.1647C57.172 16.5045 55.3103 18.39 53 18.39C50.6897 18.39 48.828 16.5045 48.828 14.1647C48.828 11.8249 50.6897 9.93942 53 9.93942ZM55.6692 2.30667C53.9196 1.89778 52.0804 1.89778 50.3308 2.30667L49.7477 5.00994C49.1196 5.2371 48.5364 5.53242 47.9757 5.87317L45.5308 4.64647C44.1178 5.80502 42.9738 7.23616 42.1888 8.89446L43.9159 11.0525C43.714 11.6886 43.557 12.3474 43.4673 13.0062L41 14.1647C41 15.982 41.4037 17.7993 42.1888 19.4349L44.9252 19.4122C45.2841 19.9801 45.6879 20.5026 46.1589 20.9797L45.5308 23.6602C46.9439 24.796 48.5813 25.5911 50.3308 26L52.0131 23.8192C52.6636 23.8874 53.3364 23.8874 53.9869 23.8192L55.6692 26C57.4187 25.5911 59.0785 24.796 60.4692 23.6602L59.8411 20.9797C60.3121 20.5026 60.7159 19.9801 61.0748 19.4122L63.8112 19.4349C64.5963 17.7993 65 15.982 65 14.1647L62.5327 12.9834C62.443 12.3247 62.3084 11.6659 62.0841 11.0298L63.8112 8.87175C63.0262 7.23616 61.8822 5.7823 60.4916 4.64647L58.0243 5.87317C57.4636 5.53242 56.8579 5.2371 56.2523 5.00994L55.6692 2.30667Z" fill="#3D248A"/>
<ellipse cx="31.5" cy="54.5" rx="21.5" ry="3.5" fill="#E1E1E1"/>
</svg>
