<svg width="66" height="62" viewBox="0 0 66 62" fill="none" xmlns="http://www.w3.org/2000/svg">
<path d="M33.5 45C40.3829 40.4575 45 32.0814 45 22.5C45 12.9186 40.3829 4.54252 33.5 0C26.6171 4.54252 22 12.9186 22 22.5C22 32.0814 26.6171 40.4575 33.5 45Z" fill="#FF5784"/>
<path d="M33.3952 46.5457C27.0033 47.4211 19.4799 44.7727 13.662 38.9548C7.84415 33.1369 5.19569 25.6135 6.07115 19.2216C12.4631 18.3461 19.9865 20.9946 25.8044 26.8124C31.6222 32.6303 34.2707 40.1537 33.3952 46.5457Z" fill="#FFC700"/>
<path d="M51.6309 38.2477C46.2336 43.6449 39.3788 46.1651 33.5088 45.6416C32.9853 39.7717 35.5055 32.9168 40.9027 27.5195C46.3 22.1223 53.1549 19.6021 59.0248 20.1256C59.5483 25.9956 57.0281 32.8504 51.6309 38.2477Z" stroke="black" stroke-width="2"/>
<ellipse cx="33.5" cy="58.5" rx="21.5" ry="3.5" fill="#E1E1E1"/>
</svg>
