<svg width="106" height="87" viewBox="0 0 106 87" fill="none" xmlns="http://www.w3.org/2000/svg">
<path d="M85.4358 16.5845H19.7941V20.6503H85.4358V16.5845Z" fill="white"/>
<path d="M87.4687 86.2919H17.7612V43.7078H21.827V82.2261H83.3494V43.7078H87.4687V86.2919Z" fill="white"/>
<path d="M105.176 45.7942H0L18.6707 16.5845H86.5057L105.176 45.7942ZM7.43617 41.6749H97.6867L84.2588 20.7038H20.9176L7.43617 41.6749Z" fill="white"/>
<path d="M65.5881 19.4196L61.7898 17.8682C62.2713 16.6378 62.5388 15.3538 62.5388 14.0699C62.5388 8.55962 58.045 4.11932 52.5882 4.11932C47.1314 4.11932 42.6376 8.55962 42.6376 14.0699C42.6376 15.4073 42.9051 16.6913 43.3866 17.8682L39.5883 19.4196C38.8928 17.7077 38.5183 15.8888 38.5183 14.0699C38.5183 6.31272 44.8311 0 52.5882 0C60.3454 0 66.6581 6.31272 66.6581 14.0699C66.6581 15.9423 66.2836 17.7077 65.5881 19.4196Z" fill="white"/>
<path d="M75.0037 64.4114H65.4276V69.1192H75.0037V64.4114Z" fill="white"/>
</svg>
