<svg width="97" height="72" viewBox="0 0 97 72" fill="none" xmlns="http://www.w3.org/2000/svg">
<path d="M58.4516 59.4379L42.4436 43.43L32.1286 53.8013C28.5776 57.3524 23.8428 59.3252 18.8263 59.3252C13.8097 59.3252 9.07493 57.3524 5.52387 53.8013C1.97281 50.2503 0 45.5155 0 40.499C0 35.4824 1.97281 30.7476 5.52387 27.1966L5.6366 27.0838C9.18766 23.5328 13.9224 21.56 18.939 21.56C23.9556 21.56 28.6903 23.5328 32.2414 27.0838L42.5 37.3425L62.059 17.7834L65.1027 20.8272L45.4874 40.3862L61.4953 56.3942L58.4516 59.4379ZM18.939 25.9002C15.0497 25.9002 11.4423 27.422 8.68037 30.1276L8.56763 30.2403C5.8057 33.0023 4.34018 36.6097 4.34018 40.499C4.34018 44.3882 5.86207 47.9956 8.56763 50.7576C11.3296 53.5195 14.937 54.985 18.8263 54.985C22.7155 54.985 26.3229 53.4631 29.0849 50.7576L39.4562 40.3862L29.1412 30.1276C26.4357 27.422 22.7719 25.9002 18.939 25.9002Z" fill="white"/>
<path d="M33.9887 51.8847L30.945 48.8409L50.504 29.2819L36.9198 15.6413L39.9635 12.5976L53.5477 26.2381L63.9191 15.8668C71.2467 8.5392 83.1963 8.5392 90.5238 15.8668C97.8514 23.1944 97.8514 35.144 90.5238 42.4715L90.4111 42.5843C86.8601 46.1353 82.1253 48.1081 77.1087 48.1081C72.0922 48.1081 67.3574 46.1353 63.8064 42.5843L53.5477 32.2693L33.9887 51.8847ZM56.5915 29.2819L66.8501 39.4841C69.6121 42.2461 73.2195 43.7116 77.1087 43.7116C80.998 43.7116 84.6054 42.1897 87.3674 39.4841L87.4801 39.3714C93.1167 33.7348 93.1167 24.4908 87.4801 18.8542C81.8435 13.2176 72.5995 13.2176 66.9629 18.8542L56.5915 29.2819Z" fill="white"/>
<path d="M64.7082 71.8948C62.2844 71.8948 60.0298 70.9366 58.3388 69.2456C56.6478 67.5546 55.6896 65.3 55.6896 62.8762C55.6896 60.4525 56.6478 58.1978 58.3388 56.5069C60.0298 54.8159 62.2844 53.8577 64.7082 53.8577C67.1319 53.8577 69.3865 54.8159 71.0775 56.5069C72.7685 58.1978 73.7267 60.4525 73.7267 62.8762C73.7267 65.3 72.7685 67.5546 71.0775 69.2456C69.3865 70.9366 67.1319 71.8948 64.7082 71.8948ZM64.7082 58.1978C63.4681 58.1978 62.2844 58.7051 61.3826 59.5506C60.4807 60.3961 60.0298 61.6362 60.0298 62.8762C60.0298 64.1163 60.5371 65.3 61.3826 66.2018C62.2844 67.1037 63.4681 67.5546 64.7082 67.5546C65.9482 67.5546 67.1319 67.0473 68.0338 66.2018C68.9356 65.3563 69.3865 64.1163 69.3865 62.8762C69.3865 61.6362 68.8792 60.4525 68.0338 59.5506C67.1883 58.6488 66.0046 58.1978 64.7082 58.1978Z" fill="white"/>
<path d="M33.8196 18.0089C31.3959 18.0089 29.1412 17.0507 27.4502 15.3597C23.9556 11.865 23.9556 6.11571 27.4502 2.62102C30.9449 -0.873673 36.6943 -0.873673 40.189 2.62102C43.6837 6.11571 43.6837 11.865 40.189 15.3597C38.498 17.1071 36.2433 18.0089 33.8196 18.0089ZM33.8196 4.312C32.6359 4.312 31.3959 4.76293 30.494 5.66478C28.6339 7.52486 28.6339 10.4559 30.494 12.316C31.3959 13.2178 32.5795 13.6688 33.8196 13.6688C35.0597 13.6688 36.2433 13.1615 37.1452 12.316C39.0053 10.4559 39.0053 7.52486 37.1452 5.66478C36.2433 4.76293 35.0597 4.312 33.8196 4.312Z" fill="white"/>
</svg>
