<svg width="71" height="72" viewBox="0 0 71 72" fill="none" xmlns="http://www.w3.org/2000/svg">
<path d="M21.7667 71.7924C17.1207 71.7924 12.6702 69.9829 9.29576 66.6084L0.639465 57.9521L18.8324 39.7592L25.5813 46.5082C26.3149 47.2418 27.2441 47.6331 28.2711 47.6331C29.2982 47.6331 30.2274 47.2418 30.961 46.5082L45.7794 31.6898C47.2465 30.2226 47.2465 27.7774 45.7794 26.3102L38.9815 19.6101L57.1744 1.41724L65.8307 10.0735C69.9876 14.2305 71.7971 20.197 70.6723 25.9679C69.9876 29.3913 68.3249 32.5212 65.8307 35.0154L34.2376 66.6084C31.7434 69.1026 28.6135 70.7654 25.1901 71.4501C24.0653 71.6946 22.8915 71.7924 21.7667 71.7924ZM5.92127 57.9521L11.9367 63.9675C15.2133 67.2442 19.9083 68.6625 24.4565 67.7822C27.1463 67.2442 29.6405 65.9238 31.5967 63.9675L63.1898 32.3745C65.146 30.4183 66.4664 27.973 67.0044 25.2343C67.8847 20.6861 66.4664 15.9911 63.1898 12.7144L57.1744 6.69904L44.2633 19.6101L48.3714 23.7182C51.3057 26.6525 51.3057 31.4453 48.3714 34.3796L33.6019 49.198C32.1836 50.6163 30.2763 51.3988 28.2711 51.3988C26.266 51.3988 24.3587 50.6163 22.9404 49.198L18.8324 45.09L5.92127 57.9521Z" fill="white"/>
<path d="M30.6837 27.5919L21.07 17.9785L18.4418 20.6066L28.0555 30.2201L30.6837 27.5919Z" fill="white"/>
<path d="M32.1108 10.426L22.4972 0.8125L19.869 3.44066L29.4826 13.0542L32.1108 10.426Z" fill="white"/>
</svg>
