<svg width="1440" height="601" viewBox="0 0 1440 601" fill="none" xmlns="http://www.w3.org/2000/svg">
<path d="M951.419 222.437L926.7 355.445L843 276.264L951.419 222.437Z" fill="#00D5FF"/>
<path d="M1476.29 271.641L1474.03 418.557L1370 349.005L1476.29 271.641Z" fill="#FF5784"/>
<path d="M-8.03533 57.6443L-11.3357 4.99994L30.4311 30.9546L-8.03533 57.6443Z" fill="#DFE0E2"/>
<path d="M294.662 537.875L261.465 434.988L350.401 458.819L294.662 537.875Z" fill="#E1E1E1"/>
<path d="M1208.74 40.6106L1408.79 99.5239L1281.52 234.12L1208.74 40.6106Z" stroke="#E1E1E1" stroke-width="3"/>
<path d="M31.4717 130.145L106.288 147.748L45.1068 217.767L31.4717 130.145Z" fill="#FFC700"/>
<path d="M829.82 584.783L847.754 546.93L866.067 579.491L829.82 584.783Z" fill="#FF5784"/>
<path d="M593.053 201.577L497 121.82L604.556 93.0001L593.053 201.577Z" fill="#FF5784"/>
</svg>
