<svg width="43" height="61" viewBox="0 0 43 61" fill="none" xmlns="http://www.w3.org/2000/svg">
<path d="M20.5321 36.5999C28.1682 36.5999 34.3585 30.3575 34.3585 22.6571C34.3585 14.9567 28.1682 8.71423 20.5321 8.71423C12.8961 8.71423 6.70578 14.9567 6.70578 22.6571C6.70578 30.3575 12.8961 36.5999 20.5321 36.5999Z" fill="#FF5784"/>
<path d="M43 22.6571H38.8521C38.8521 12.4789 30.6254 4.18286 20.5322 4.18286V0C32.9068 0 43 10.1783 43 22.6571Z" fill="#3D248A"/>
<path fill-rule="evenodd" clip-rule="evenodd" d="M40.7878 52.8435V61H0V52.8435C0 47.2663 2.21222 42.1772 5.80707 38.4823C8.01929 36.1817 11.1302 34.8572 14.3794 34.8572H26.4775C29.5884 34.8572 32.6302 36.0423 34.7733 38.2035C34.7733 38.2035 34.7733 38.2035 34.8424 38.2732C38.5064 41.968 40.7878 47.1269 40.7878 52.8435Z" fill="#3D248A"/>
</svg>
