<svg width="258" height="362" viewBox="0 0 258 362" fill="none" xmlns="http://www.w3.org/2000/svg">
<path d="M126.741 205.619L119.129 237.349C118.198 241.203 117.523 245.032 117.261 248.982C117.011 252.886 117.018 256.766 117.464 260.674L123.368 313.155L124.044 322.898L143.533 321.582L142.857 311.84L141.671 259.047C141.609 256.543 141.881 254.087 142.245 251.658C142.609 249.229 143.294 246.894 144.084 244.54L154.536 213.64L158.559 199.752L130.75 191.777L126.741 205.619Z" fill="#3D248A"/>
<path d="M91.7328 192.246L65.3199 241.438C62.6253 246.426 60.9963 251.842 60.8157 257.367C60.6604 262.83 61.5083 268.331 63.8114 273.472L81.2168 311.605L84.9336 320.657L103.007 313.261L99.2898 304.209L84.9332 264.828C84.2513 262.991 84.2218 260.98 84.443 259.07C84.639 257.222 85.4495 255.476 86.4856 253.892L116.64 206.893L123.976 194.425L99.0057 179.753L91.7328 192.246Z" fill="#3D248A"/>
<path d="M128.679 340.498L128.179 335.963L128.066 329.075L141.84 328.817L141.953 335.705L141.275 344.438L141.372 349.229L121.922 352.74L117.415 353.889L115.123 344.876L119.63 343.728L128.679 340.498Z" fill="#FF5784"/>
<path d="M116.057 359.869L140.907 354.82C141.73 354.67 142.246 353.888 142.068 353.06C141.89 352.233 141.11 351.723 140.287 351.873L115.438 356.922C114.615 357.072 114.098 357.854 114.276 358.682C114.454 359.509 115.234 360.019 116.057 359.869Z" fill="#3D248A"/>
<path d="M127.768 335.707C128.861 335.826 130.017 335.711 131.111 335.83C131.918 335.931 132.673 335.359 132.777 334.505C132.878 333.699 132.305 332.944 131.451 332.84C130.358 332.721 129.249 332.839 128.156 332.72C127.349 332.619 126.593 333.191 126.492 333.997C126.34 334.848 126.913 335.603 127.768 335.707Z" fill="#3D248A"/>
<path d="M127.91 340.831C129.038 341.144 130.16 341.553 131.339 341.821C132.14 342.017 132.937 341.543 133.133 340.743C133.329 339.943 132.855 339.147 132.054 338.951C130.923 338.686 129.801 338.278 128.72 337.968C127.919 337.772 127.122 338.245 126.882 338.995C126.638 339.792 127.112 340.588 127.91 340.831Z" fill="#3D248A"/>
<path d="M93.4106 337.401L91.5424 333.237L89.32 326.714L102.35 322.257L104.573 328.78L106.609 337.302L108.172 341.834L90.7377 351.122L86.801 353.593L81.8526 345.713L85.7893 343.242L93.4106 337.401Z" fill="#FF5784"/>
<path d="M87.3522 359.7L109.455 347.293C110.193 346.899 110.444 345.997 110.021 345.263C109.597 344.53 108.699 344.282 107.961 344.677L85.8579 357.084C85.1203 357.478 84.869 358.381 85.2924 359.114C85.7158 359.848 86.6146 360.095 87.3522 359.7Z" fill="#3D248A"/>
<path d="M91.0804 333.139C92.1575 332.919 93.2228 332.455 94.3 332.235C95.0991 332.084 95.6428 331.308 95.4797 330.463C95.3283 329.665 94.5515 329.121 93.706 329.284C92.6289 329.504 91.61 329.956 90.5328 330.177C89.7336 330.328 89.19 331.103 89.3414 331.902C89.5045 332.747 90.2812 333.29 91.0804 333.139Z" fill="#3D248A"/>
<path d="M92.7755 337.928C93.9455 337.881 95.1387 337.927 96.3433 337.822C97.1658 337.764 97.7791 337.069 97.7203 336.247C97.6615 335.425 96.9658 334.812 96.1434 334.871C94.985 334.964 93.7917 334.918 92.6681 334.953C91.8457 335.012 91.2324 335.707 91.2333 336.494C91.292 337.315 91.9994 337.975 92.7755 337.928Z" fill="#3D248A"/>
<path d="M89.8223 117.314C100.811 98.3085 125.096 91.8024 144.117 102.768C163.138 113.734 169.638 137.988 158.649 156.994L89.8223 117.314Z" fill="#FF5784"/>
<path d="M161.458 37.7147L170.124 25.7316C170.42 25.3618 170.346 24.77 169.901 24.4742C169.531 24.1783 168.939 24.2523 168.642 24.6961L159.977 36.6792C159.68 37.049 159.754 37.6408 160.199 37.9366C160.643 38.1585 161.162 38.0846 161.458 37.7147Z" fill="#3D248A"/>
<path d="M148.349 32.2413L154.052 4.28079C154.126 3.83697 153.829 3.31918 153.385 3.24521C152.941 3.17125 152.422 3.46712 152.348 3.91094L146.645 31.8715C146.571 32.3153 146.867 32.8331 147.311 32.9071C147.756 33.055 148.274 32.7591 148.349 32.2413Z" fill="#3D248A"/>
<path d="M133.387 29.8741L128.795 14.1925C128.647 13.7487 128.128 13.4528 127.684 13.6007C127.24 13.7487 126.943 14.2665 127.092 14.7103L131.684 30.3919C131.832 30.8357 132.276 31.1316 132.795 30.9836C133.239 30.8357 133.535 30.3919 133.387 29.8741Z" fill="#3D248A"/>
<path d="M124.339 69.9219C120.435 78.2866 123.249 88.6505 132.327 89.2818C133.87 89.3871 135.55 88.9136 137.048 88.3349C140.452 86.9671 142.585 84.4418 144.174 81.3905C145.717 78.4445 146.716 75.0249 147.941 71.7632C148.123 71.2897 147.896 70.8162 147.442 70.6058C146.988 70.448 146.489 70.6584 146.307 71.1319C145.082 74.341 144.083 77.7079 142.63 80.6014C141.223 83.2845 139.362 85.5466 136.412 86.7566C135.187 87.2301 133.78 87.651 132.463 87.5458C124.611 86.9671 122.568 77.9184 125.927 70.6584C126.154 70.2375 125.927 69.7114 125.519 69.501C125.11 69.2906 124.566 69.501 124.339 69.9219Z" fill="#3D248A"/>
<path d="M147.153 72.3573C149.301 72.2833 151.745 71.7656 153.3 70.1382C155.893 67.5493 155.745 62.4454 151.967 60.966C150.56 60.3742 149.005 60.5961 147.523 60.7441C147.005 60.7441 146.634 61.1879 146.708 61.7057C146.708 62.2235 147.153 62.5933 147.671 62.5193C148.93 62.4454 150.19 62.1495 151.375 62.6673C153.967 63.7029 153.819 67.1794 152.115 69.0287C150.856 70.2862 148.93 70.656 147.227 70.73C146.708 70.73 146.338 71.1738 146.412 71.6176C146.264 71.9875 146.709 72.3573 147.153 72.3573Z" fill="#3D248A"/>
<path d="M150.624 57.829C150.624 61.6754 138.329 70.9956 125.145 70.3299C113.221 69.6642 111.369 50.506 125.145 47.0294C141.44 42.9611 150.624 57.829 150.624 57.829Z" fill="#3D248A"/>
<path d="M146.476 61.6009C147.661 61.5269 148.92 61.7488 150.105 61.9707C153.142 62.6364 155.512 65.6692 153.142 68.628C151.142 71.069 143.365 71.9566 146.18 76.7646C148.106 80.0933 152.92 79.6495 156.031 78.9837C163.511 77.2085 168.844 70.921 169.955 63.672C171.066 56.423 164.844 48.952 157.808 47.3987C151.735 46.0672 143.958 48.1384 142.402 54.7956L146.476 61.6009Z" fill="#3D248A"/>
<path d="M186.931 184.804C189.107 175.245 191.076 164.094 192.565 148.159C193.304 140.888 190.698 133.618 185.463 128.477C178.624 121.664 168.48 112.482 159.726 108.185C153.535 105.173 148.007 104.639 144.623 108.679C138.848 115.535 140.399 122.571 145.124 128.847C149.629 134.853 157.032 140.182 163.328 144.025C169.98 148.062 174.117 155.268 174.236 163.06C174.376 173.009 174.587 184.625 174.587 184.625C174.608 185.112 174.973 185.514 175.46 185.494C175.947 185.473 176.35 185.108 176.33 184.622C176.33 184.622 176.119 173.005 175.978 163.056C175.833 154.639 171.394 146.889 164.171 142.528C158.09 138.815 150.834 133.689 146.475 127.815C142.335 122.211 140.82 116.009 145.928 109.878C147.321 108.218 149.107 107.586 151.269 107.635C153.571 107.678 156.187 108.543 158.892 109.891C167.501 114.055 177.434 123.175 184.124 129.787C188.927 134.598 191.371 141.317 190.678 148.029C189.183 163.825 187.211 174.907 185.032 184.396C184.914 184.888 185.212 185.363 185.705 185.482C186.334 185.525 186.81 185.227 186.931 184.804Z" fill="#3D248A"/>
<path d="M175.416 183.728C169.661 185.377 164.703 189.164 162.362 194.849C161.716 196.47 161.231 199.451 162.002 201.435C162.262 202.243 162.717 202.893 163.387 203.318C164.057 203.743 164.855 203.989 165.931 203.81C167.907 203.545 168.804 202.293 169.343 200.784C169.733 199.521 169.832 198.023 170.115 196.873C170.717 194.219 172.387 192.113 174.989 191.24C175.47 191.097 175.701 190.585 175.558 190.105C175.415 189.624 174.903 189.394 174.422 189.536C171.186 190.578 169.131 193.221 168.411 196.493C168.128 197.644 168.07 199.009 167.68 200.272C167.392 201.203 166.88 201.918 165.738 202.076C165.144 202.112 164.724 202.055 164.346 201.866C163.809 201.482 163.574 200.828 163.447 200.06C163.193 198.526 163.548 196.67 163.964 195.561C166.073 190.387 170.622 186.983 175.829 185.456C176.31 185.313 176.541 184.802 176.465 184.342C176.389 183.882 175.898 183.585 175.416 183.728Z" fill="#3D248A"/>
<path d="M173.827 190.3C171.744 194.682 170.35 200.368 173.135 204.793C173.912 206.051 174.863 207.218 176.285 207.802C178.731 208.846 181.901 207.784 182.012 204.833C182.038 204.04 181.778 203.232 181.277 202.496C180.751 201.605 179.917 200.766 179.503 199.984C178.701 198.572 178.688 196.966 178.454 195.365C178.378 194.905 177.974 194.562 177.446 194.618C176.985 194.695 176.642 195.098 176.698 195.625C176.936 197.446 177.022 199.292 177.916 200.878C178.283 201.574 178.938 202.285 179.505 203.042C179.914 203.605 180.236 204.213 180.271 204.807C180.198 206.458 178.334 206.831 176.978 206.268C175.888 205.786 175.295 204.876 174.636 203.945C172.193 200.062 173.581 195.102 175.454 191.165C175.664 190.72 175.455 190.219 175.009 190.009C174.605 189.666 174.037 189.855 173.827 190.3Z" fill="#3D248A"/>
<path d="M176.764 195.648C178.373 198.692 179.63 200.753 183.305 201.594C184.191 201.794 185.445 201.743 186.382 201.304C187.146 200.956 187.704 200.328 187.905 199.443C188.044 198.758 187.809 198.103 187.354 197.453C186.879 196.87 186.183 196.291 185.8 195.882C184.782 194.695 184.287 193.232 183.813 191.703C183.67 191.222 183.179 190.925 182.697 191.068C182.216 191.211 181.918 191.702 182.061 192.183C182.541 193.932 183.173 195.656 184.416 197.058C184.733 197.447 185.27 197.831 185.7 198.327C185.904 198.608 186.196 198.844 186.113 199.11C186.057 199.529 185.708 199.713 185.294 199.876C184.725 200.065 184.085 200.014 183.599 199.937C180.523 199.281 179.557 197.454 178.244 194.866C178.014 194.431 177.482 194.267 177.047 194.497C176.698 194.681 176.534 195.213 176.764 195.648Z" fill="#3D248A"/>
<path d="M94.4029 190.035L131.606 212.807L158.523 199.623C162.894 184.898 158.694 176.765 150.465 168.718L105.29 167.434L94.4029 190.035Z" fill="#3D248A"/>
<path d="M146.799 73.3328C142.942 77.7846 143.713 85.1471 147.056 89.7701C148.856 92.2528 152.371 94.7355 155.543 93.1945C158.371 91.8247 157.514 86.7737 156.828 84.5478C156.657 83.9485 156.4 83.0068 155.886 82.5788C155.714 82.4076 156.143 82.9212 156.314 83.0924C156.486 83.2637 156.657 83.5205 156.828 83.6917C157.257 84.2054 157.6 84.5478 158.114 84.9759C159.572 86.26 162.058 87.5442 164.029 86.8593C166.172 86.0888 166.086 83.9485 165.143 82.1507C164.801 81.5514 164.372 80.9522 163.943 80.3529C163.686 80.0961 163.6 80.0105 163.258 79.7536C163.172 79.668 162.743 79.5824 162.915 79.4968C165.658 78.9831 170.715 80.8666 171.401 76.586C171.744 74.3602 169.687 72.4767 167.887 71.7062C166.086 70.9357 164.029 70.8501 162.058 70.6789C160 70.5077 157.857 70.3365 155.886 70.6789L146.799 73.3328Z" fill="#3D248A"/>
<path d="M124.254 68.3674C121.854 67.7682 119.025 68.1106 116.711 68.8811C115.511 69.3092 114.054 70.0797 113.796 71.4494C113.111 74.7882 118.254 75.3019 120.397 74.8738C120.654 74.7882 119.883 75.1307 119.54 75.2163C118.854 75.4731 118.511 75.5587 117.825 75.9012C115.939 76.6717 113.111 78.2983 113.796 80.781C114.225 82.5788 117.14 82.0651 118.34 81.7227C118.854 81.5515 119.368 81.3802 119.797 81.209C119.968 81.1234 120.226 80.8666 120.226 80.9522C120.14 81.209 119.454 81.9795 119.368 82.2363C118.683 83.1781 118.168 84.5478 118.425 85.832C118.683 86.9449 119.711 87.1161 120.74 86.7737C122.026 86.4313 123.483 84.8903 123.912 83.6917C124.169 83.0068 123.826 82.1507 123.654 81.5515C123.483 80.6097 123.483 79.5824 123.397 78.6407C123.226 75.3875 123.74 71.7063 125.112 68.7099L124.254 68.3674Z" fill="#3D248A"/>
<path d="M97.3378 127.952C94.5947 138.054 90.9087 156.204 88.4227 160.484C85.4225 165.535 66.9066 183.342 60.5633 186.938C60.1347 187.195 59.9632 187.708 60.2204 188.136C60.4775 188.565 60.9919 188.736 61.4205 188.479C67.9353 184.798 86.8798 166.563 89.88 161.34C92.4517 157.06 96.2234 138.568 98.9665 128.38C99.1379 127.952 98.795 127.439 98.3664 127.267C97.9378 127.182 97.5092 127.439 97.3378 127.952Z" fill="#3D248A"/>
<path d="M51.8069 180.682C52.1314 180.465 52.6165 180.414 53.1819 180.447C53.7354 180.546 54.4494 180.811 55.2318 181.225C57.0493 182.237 59.1847 184.13 60.4455 185.592C61.0759 186.323 61.5337 186.954 61.6465 187.387C61.8516 187.836 61.5714 188.335 61.0624 188.519C60.5534 188.703 60.1281 188.42 59.9231 187.972C59.7864 187.672 59.4772 187.274 59.0996 186.725C57.9192 185.347 55.9324 183.686 54.2873 182.774C53.85 182.558 53.4127 182.343 53.0438 182.277C52.8593 182.244 52.779 182.161 52.6628 182.277L52.5587 182.327C52.2461 182.478 52.1863 182.81 52.2188 183.16C52.3316 183.592 52.5247 184.107 52.81 184.639C53.6898 186.102 55.1231 187.663 56.1344 188.393C56.307 188.493 56.5598 188.675 56.6521 188.692C57.033 188.691 57.2858 188.874 57.5147 189.19C57.7317 189.572 57.66 189.971 57.3235 190.254C56.5344 190.938 54.9032 191.539 53.0072 192.024C50.51 192.677 47.5516 193.247 46.2893 193.914C45.9767 194.065 45.548 194.331 45.1996 194.681C45.0954 194.731 45.0835 194.798 45.0596 194.931C45.0476 194.997 44.9554 194.981 45.0357 195.064C45.104 195.214 45.2885 195.247 45.461 195.346C45.818 195.479 46.0948 195.528 46.4637 195.594C48.4127 195.874 53.7848 195.117 55.404 194.582C56.1095 194.365 56.8149 194.148 57.6809 194.096C57.8774 194.063 58.0738 194.029 58.178 193.979C58.2822 193.929 58.4786 193.896 58.5709 193.912C58.6631 193.929 58.7553 193.945 58.8476 193.961C59.3088 194.044 59.5258 194.426 59.5702 194.709C59.5463 194.842 59.5907 195.125 59.3465 195.425C58.7419 196.141 57.4438 197.008 55.9613 197.842C53.9458 198.993 51.6416 200.16 50.8167 201.043C50.6886 201.226 50.4682 201.393 50.3282 201.643C50.2121 201.76 50.1882 201.893 50.2565 202.042C50.3368 202.125 50.5213 202.158 50.7058 202.191C51.0747 202.257 51.4556 202.257 51.9407 202.206C54.3663 201.953 57.7687 200.5 58.7867 200.133C59.3077 199.882 59.8286 199.632 60.3496 199.382C60.558 199.282 60.6502 199.298 60.7664 199.182C60.8706 199.132 61.1951 198.915 61.1951 198.915C61.4957 198.831 61.6802 198.864 61.8527 198.964C62.1175 199.08 62.2781 199.246 62.3345 199.462C62.4148 199.545 62.5395 199.911 62.1792 200.327C61.1903 201.593 59.2398 203.442 57.7505 205.374C57.1339 206.157 56.5174 206.94 56.2937 207.655C56.3979 207.605 56.5943 207.572 56.6985 207.522C59.3716 206.42 64.8885 202.735 70.9824 195.307C71.2146 195.073 71.7715 194.624 72.5367 194.073C74.2635 192.94 77.2525 191.139 80.2415 189.337C83.2306 187.536 86.2197 185.735 87.9704 184.468C88.6314 183.968 89.072 183.635 89.3043 183.402C89.5605 183.035 90.1498 182.935 90.5632 183.283C90.9885 183.566 90.9852 184.114 90.7171 184.547C90.4728 184.847 89.9041 185.364 89.0347 185.964C87.284 187.231 84.1908 189.082 81.2017 190.883C78.2127 192.684 75.3158 194.502 73.589 195.635C72.94 196.069 72.5113 196.336 72.3832 196.519C65.0682 205.446 58.4888 209.215 56.2239 209.635C54.7446 209.92 54.3107 209.155 54.3499 208.407C54.4727 207.192 55.3011 205.76 56.4061 204.378C56.9065 203.712 57.4991 203.062 58.0798 202.479C56.4486 203.081 54.0197 203.883 52.1715 204.102C51.3978 204.17 50.7282 204.187 50.1867 204.022C49.7374 203.873 49.3001 203.657 49.0712 203.342C48.5211 202.694 48.4681 201.929 48.784 201.229C48.9718 200.713 49.3322 200.297 49.6806 199.947C50.4936 199.131 52.393 198.097 54.2001 197.046L54.5246 196.829C52.0513 197.349 48.0662 197.804 46.3017 197.557C45.7482 197.458 45.1145 197.276 44.5849 197.044C44.1476 196.829 43.7342 196.48 43.6095 196.114C43.2558 195.433 43.3873 194.701 43.8757 194.101C44.3642 193.501 45.1294 192.951 45.7545 192.651C47.109 192 50.1717 191.38 52.7731 190.677C53.5708 190.476 54.3804 190.209 54.9936 189.975C53.8217 189.079 52.3081 187.434 51.4402 185.905C50.9379 184.991 50.6201 184.11 50.5671 183.345C50.4371 181.948 50.8692 181.132 51.8069 180.682Z" fill="#3D248A"/>
<path d="M136.77 137.541C135.741 138.911 134.627 140.195 133.598 141.565C130.083 146.273 126.569 151.068 122.797 155.519C122.025 156.375 120.74 158.344 119.454 159.543C118.768 160.142 118.082 160.656 117.482 160.742C117.139 160.827 116.968 160.742 116.796 160.656C116.625 160.57 116.539 160.399 116.454 160.228C116.368 160.057 116.282 159.885 116.368 159.629C116.368 159.372 116.539 159.029 116.539 158.858C116.539 157.831 116.539 157.916 116.539 156.889C116.454 155.091 116.368 153.293 116.368 151.496C116.282 145.76 116.282 140.024 116.196 134.288C116.111 130.007 115.939 125.812 116.196 121.532C116.196 121.018 116.625 120.676 117.139 120.676C117.654 120.676 117.997 121.104 117.997 121.617C117.654 125.812 117.911 130.007 117.997 134.202C118.082 139.938 118.082 145.674 118.168 151.41C118.168 153.208 118.254 155.006 118.339 156.803C118.339 157.66 118.339 157.745 118.339 158.344C118.511 158.173 118.682 158.002 118.939 157.745C119.968 156.547 120.997 155.091 121.597 154.406C125.369 149.955 128.883 145.16 132.312 140.537C133.341 139.168 134.455 137.884 135.484 136.514C135.569 136.343 136.084 135.486 136.427 135.058C136.684 134.802 136.941 134.63 137.112 134.63C137.37 134.545 137.627 134.63 137.798 134.716C138.055 134.802 138.227 135.058 138.398 135.315C138.484 135.486 138.484 135.743 138.484 136C138.484 136.171 138.484 136.343 138.484 136.514C139.084 138.996 139.084 141.65 139.17 144.219C139.255 146.701 139.341 149.184 139.427 151.667C139.598 154.92 139.941 158.259 140.113 161.512C140.113 162.026 139.77 162.454 139.255 162.454C138.741 162.454 138.313 162.111 138.313 161.598C138.141 158.344 137.798 155.006 137.627 151.752C137.455 149.27 137.455 146.787 137.37 144.304C137.198 141.993 137.198 139.767 136.77 137.541Z" fill="#3D248A"/>
<path d="M193.745 241.786L175.335 258.146L169.628 236.889L193.745 241.786Z" fill="#00D5FF"/>
<path d="M247.815 105.434L210.258 102.015L228.066 73.4212L247.815 105.434Z" fill="#FF5784"/>
<path d="M247.733 106.31C248.025 106.337 248.386 106.252 248.594 105.919C248.802 105.585 248.829 105.293 248.564 104.974L228.885 72.8499C228.731 72.6003 228.397 72.3928 228.105 72.3658C227.813 72.3387 227.563 72.4921 227.355 72.8259L209.547 101.42C209.409 101.642 209.312 102.045 209.466 102.294C209.619 102.544 209.842 102.682 210.245 102.779L247.733 106.31ZM211.688 101.206L246.033 104.328L228.041 74.9488L211.688 101.206Z" fill="white"/>
<path d="M69.9753 12.8061C70.7217 12.2408 71.7252 12.1381 72.5512 12.6143C73.3772 13.0904 73.7898 14.0095 73.6727 14.9377L71.2906 30.1234L84.1536 38.5346C84.9569 39.0501 85.3468 40.0085 85.1283 40.9306C84.9098 41.8527 84.1966 42.5419 83.2718 42.69L68.0642 45.1367L64.0327 60.0004C63.7749 60.8998 63.0223 61.5664 62.081 61.6525C61.1396 61.7386 60.2516 61.2791 59.7935 60.4386L52.7647 46.7445L37.3733 47.5133C36.4547 47.5601 35.55 47.0385 35.1768 46.1421C34.7808 45.285 34.9826 44.301 35.6338 43.6283L46.5093 32.7103L41.0275 18.336C40.6936 17.4623 40.9575 16.4616 41.6253 15.8509C42.3158 15.2009 43.3192 15.0982 44.1906 15.4958L57.9172 22.4135L69.9753 12.8061Z" fill="#FFC700"/>
<path d="M219.935 302.987C220.007 302.573 220.307 302.219 220.733 302.105C221.159 301.991 221.597 302.147 221.866 302.471L226.472 308.174L233.717 309.308C234.132 309.38 234.486 309.68 234.601 310.106C234.715 310.532 234.558 310.969 234.235 311.238L228.529 315.836L227.398 323.073C227.326 323.487 227.025 323.842 226.599 323.955C226.173 324.069 225.736 323.913 225.466 323.589L220.861 317.886L213.616 316.752C213.201 316.68 212.846 316.38 212.732 315.954C212.618 315.529 212.774 315.091 213.098 314.822L218.804 310.224L219.935 302.987Z" fill="#FFC700"/>
<path d="M43.2058 293.885C48.7433 296.697 55.1328 298.715 62.1186 299.816C108.549 307.091 177.896 290.216 210.013 266.921C226.626 254.876 235.827 239.041 233.356 224.122C231.737 214.217 224.837 204.801 211.717 197.22C211.291 196.975 211.121 196.425 211.376 195.997C211.632 195.569 212.143 195.447 212.569 195.691C226.285 203.64 233.271 213.545 235.06 223.878C237.616 239.346 228.33 255.855 211.036 268.389C178.577 291.928 108.634 308.926 61.7778 301.589C54.4512 300.427 47.6358 298.287 41.8427 295.23C31.8752 304.585 17.0516 311.31 1.03537 313.939C0.524213 314 0.0982389 313.695 0.0130461 313.206C-0.0721467 312.716 0.268645 312.288 0.779802 312.166C16.1997 309.598 30.5121 303.239 40.2241 294.313C32.2159 289.727 26.3376 283.307 24.1226 275.542C22.6743 270.345 23.1855 261.785 28.5526 257.261C30.8528 255.304 34.1754 254.082 38.5202 254.204C44.1429 254.387 47.8914 256.222 50.362 258.851C52.6622 261.296 53.7697 264.537 54.1105 267.9C54.6216 272.852 53.3437 278.11 51.7251 281.718C49.8508 286.12 46.8691 290.155 43.2058 293.885ZM41.5871 293.029C45.2504 289.36 48.2322 285.325 50.1916 280.984C51.7251 277.621 52.8326 272.669 52.4066 268.083C52.151 265.087 51.1287 262.213 49.0841 260.073C46.8691 257.689 43.5466 256.16 38.5202 255.977C25.4857 255.549 23.9522 268.389 25.8265 275.053C28.0415 282.512 33.7494 288.627 41.5871 293.029Z" fill="#3D248A"/>
</svg>
