<svg width="244" height="394" viewBox="0 0 244 394" fill="none" xmlns="http://www.w3.org/2000/svg">
<path d="M206.995 112.905C207.16 112.116 207.646 111.407 208.411 110.975C209.176 110.543 210.014 110.406 210.912 110.629C215.849 111.858 225.211 114.188 230.213 115.433C231.046 115.641 231.811 116.177 232.329 116.928C232.782 117.663 233.016 118.482 232.837 119.337C231.104 127.619 226.332 150.429 224.599 158.711C224.434 159.5 223.949 160.209 223.184 160.641C222.483 161.089 221.58 161.21 220.683 160.987C215.745 159.758 206.383 157.428 201.381 156.183C200.548 155.975 199.783 155.439 199.265 154.688C198.812 153.953 198.579 153.134 198.757 152.279C200.504 143.931 205.276 121.122 206.995 112.905Z" fill="#3D248A"/>
<path d="M211.287 116.331C211.392 115.824 211.698 115.403 212.146 115.139C212.595 114.876 213.134 114.805 213.674 114.94C214.982 115.267 216.706 115.699 218.015 116.027C218.534 116.157 219.012 116.483 219.312 116.934C219.611 117.384 219.718 117.92 219.615 118.416C219.351 119.684 219.008 121.332 218.745 122.6C218.639 123.107 218.333 123.528 217.885 123.791C217.437 124.055 216.897 124.126 216.357 123.991C215.049 123.663 213.325 123.232 212.017 122.904C211.497 122.774 211.019 122.448 210.72 121.997C210.42 121.546 210.313 121.01 210.416 120.515C210.68 119.247 211.023 117.599 211.287 116.331Z" fill="white"/>
<path d="M220.876 93.1085C220.982 92.6014 221.288 92.1808 221.736 91.9171C222.184 91.6535 222.723 91.5823 223.263 91.7175C224.572 92.0452 226.296 92.4768 227.604 92.8045C228.123 92.9345 228.602 93.2604 228.901 93.7113C229.201 94.1622 229.308 94.6983 229.205 95.194C228.941 96.4618 228.598 98.11 228.334 99.3778C228.229 99.885 227.923 100.306 227.474 100.569C227.026 100.833 226.487 100.904 225.947 100.769C224.639 100.441 222.915 100.01 221.606 99.6819C221.087 99.5519 220.609 99.226 220.309 98.775C220.01 98.3241 219.903 97.788 220.006 97.2924C220.27 96.0246 220.615 94.3649 220.876 93.1085Z" fill="#00D5FF"/>
<path d="M208.845 129.056C208.647 130.008 208.38 131.291 208.182 132.242C208.063 132.813 208.188 133.419 208.523 133.921C208.856 134.431 209.391 134.8 209.988 134.949C210.972 135.196 212.314 135.532 213.298 135.778C213.895 135.928 214.523 135.85 215.025 135.549C215.526 135.248 215.879 134.762 215.996 134.199C216.194 133.247 216.461 131.965 216.659 131.013C216.777 130.442 216.652 129.836 216.318 129.334C215.984 128.824 215.449 128.455 214.853 128.306C213.869 128.059 212.527 127.723 211.542 127.477C210.946 127.327 210.318 127.405 209.816 127.706C209.316 127.999 208.963 128.485 208.845 129.056ZM210.694 129.519C210.714 129.42 210.78 129.332 210.87 129.276C210.96 129.22 211.073 129.205 211.177 129.231C212.162 129.478 213.504 129.814 214.488 130.06C214.592 130.086 214.688 130.154 214.747 130.247C214.806 130.34 214.83 130.451 214.809 130.55C214.611 131.502 214.345 132.784 214.147 133.736C214.126 133.835 214.061 133.923 213.97 133.979C213.88 134.035 213.767 134.05 213.663 134.024C212.679 133.778 211.337 133.441 210.353 133.195C210.248 133.169 210.152 133.101 210.093 133.008C210.034 132.915 210.01 132.805 210.031 132.705L210.694 129.519Z" fill="white"/>
<path d="M226.422 108.578C226.59 107.77 227.064 107.084 227.812 106.674C228.52 106.254 229.41 106.155 230.237 106.362C232.992 107.052 236.927 108.038 239.682 108.728C240.508 108.935 241.267 109.47 241.743 110.163C242.216 110.879 242.411 111.732 242.243 112.54C241.693 115.183 240.903 118.983 240.358 121.604C240.19 122.412 239.716 123.098 238.968 123.508C238.259 123.928 237.369 124.027 236.543 123.82C233.788 123.13 229.853 122.144 227.098 121.454C226.271 121.247 225.513 120.712 225.036 120.018C224.559 119.325 224.369 118.45 224.537 117.642C225.082 115.021 225.872 111.22 226.422 108.578Z" fill="#C2DE0B"/>
<path d="M225.478 108.342C224.929 110.984 224.138 114.784 223.593 117.405C223.38 118.431 223.604 119.544 224.241 120.462C224.878 121.38 225.815 122.051 226.917 122.327C229.671 123.017 233.607 124.003 236.361 124.693C237.463 124.969 238.573 124.81 239.509 124.286C240.446 123.763 241.088 122.867 241.302 121.84C241.851 119.198 242.642 115.398 243.187 112.777C243.4 111.751 243.176 110.638 242.539 109.72C241.941 108.812 240.965 108.131 239.863 107.855C237.109 107.165 233.173 106.179 230.419 105.489C229.317 105.213 228.207 105.372 227.271 105.896C226.329 106.441 225.692 107.315 225.478 108.342ZM227.328 108.805C227.446 108.237 227.796 107.75 228.31 107.466C228.825 107.181 229.426 107.079 230.016 107.227C232.771 107.917 236.706 108.902 239.461 109.592C240.051 109.74 240.596 110.106 240.903 110.62C241.254 111.121 241.377 111.726 241.259 112.294L239.373 121.357C239.255 121.925 238.906 122.412 238.391 122.697C237.876 122.981 237.276 123.083 236.685 122.936C233.931 122.246 229.995 121.26 227.241 120.57C226.65 120.422 226.106 120.056 225.798 119.543C225.447 119.041 225.325 118.436 225.443 117.868L227.328 108.805Z" fill="#C2DE0B"/>
<path d="M82.6602 239.653L92.8578 271.524C93.6274 273.952 94.2825 276.365 94.5815 278.887C94.8805 281.409 95.0777 283.963 94.9059 286.578L91.4144 341.729L90.2686 351.923L111.615 352.581L112.761 342.387L121.421 287.389C122.073 283.293 122.241 279.243 122.129 275.177C122.017 271.111 121.422 267.091 120.559 263.102L113.516 230.261L109.675 215.912L78.8062 225.257L82.6602 239.653Z" fill="#3D248A"/>
<path d="M118.901 231.461L153.4 281.44C154.565 283.17 155.533 284.97 155.828 286.897C156.153 288.89 156.214 290.978 155.567 292.86L141.984 333.221L138.415 342.482L158.136 350.857L161.705 341.596L178.615 302.648C180.878 297.462 181.552 291.735 181.086 286.033C180.638 280.287 178.642 274.598 175.523 269.312L144.936 217.199L136.496 203.966L110.395 218.252L118.901 231.461Z" fill="#3D248A"/>
<path d="M108.738 371.668L118.26 374.937L122.993 376.075L120.483 385.445L115.751 384.306L100.18 382.052L95.3088 380.865L94.8406 366.852L95.0332 359.711L109.532 359.818L109.34 366.959L108.738 371.668Z" fill="#C2DE0B"/>
<path d="M122.561 388.682L96.6082 383.807C95.7482 383.663 94.9268 384.192 94.7319 385.038C94.537 385.884 95.069 386.676 95.929 386.82L121.882 391.695C122.742 391.839 123.563 391.31 123.758 390.464C123.956 389.669 123.421 388.826 122.561 388.682Z" fill="#3D248A"/>
<path d="M109.319 363.566C108.176 363.749 107.012 363.591 105.865 363.726C105.018 363.839 104.36 364.624 104.458 365.451C104.555 366.278 105.344 366.906 106.191 366.793C107.337 366.658 108.498 366.767 109.695 366.628C110.542 366.516 111.15 365.734 111.052 364.907C110.952 364.032 110.166 363.453 109.319 363.566Z" fill="#3D248A"/>
<path d="M108.731 369.013C107.544 369.348 106.411 369.729 105.224 370.064C104.382 370.275 103.877 371.1 104.074 371.921C104.271 372.743 105.103 373.221 105.945 373.011C107.134 372.724 108.315 372.291 109.551 371.952C110.393 371.742 110.896 370.867 110.649 370.05C110.401 369.232 109.57 368.753 108.731 369.013Z" fill="#3D248A"/>
<path d="M145.513 368.444L153.866 374.734L158.15 377.405L153.163 385.326L148.879 382.655L134.379 375.263L129.974 372.5L133.335 359.222L135.466 352.601L149.511 357.619L147.379 364.24L145.513 368.444Z" fill="#C2DE0B"/>
<path d="M153.619 389.161L130.032 376.068C129.246 375.65 128.314 375.868 127.897 376.586C127.48 377.304 127.776 378.213 128.562 378.63L152.149 391.724C152.936 392.142 153.868 391.924 154.285 391.206C154.69 390.536 154.406 389.579 153.619 389.161Z" fill="#3D248A"/>
<path d="M148.505 360.971C147.354 360.759 146.277 360.224 145.137 359.966C144.291 359.788 143.445 360.297 143.315 361.097C143.184 361.897 143.773 362.743 144.619 362.922C145.759 363.179 146.847 363.669 148.036 363.939C148.882 364.118 149.679 363.596 149.809 362.796C149.95 361.949 149.4 361.163 148.505 360.971Z" fill="#3D248A"/>
<path d="M146.266 365.978C145.031 365.892 143.835 365.865 142.6 365.779C141.731 365.692 141.02 366.29 140.988 367.12C140.955 367.95 141.627 368.674 142.496 368.76C143.72 368.893 144.976 368.887 146.26 368.986C147.129 369.073 147.851 368.429 147.834 367.585C147.866 366.755 147.145 366.018 146.266 365.978Z" fill="#3D248A"/>
<path d="M149.301 136.737C138.623 117.575 113.599 111.653 93.3562 123.497C73.1128 135.342 65.3728 160.433 76.0514 179.596L149.301 136.737Z" fill="#C2DE0B"/>
<path d="M196.814 108.848L186.688 105.325C186.177 105.158 185.684 105.425 185.458 105.896C185.26 106.411 185.504 106.885 185.967 107.083L196.093 110.606C196.604 110.773 197.097 110.506 197.323 110.035C197.521 109.52 197.295 108.971 196.814 108.848Z" fill="#3D248A"/>
<path d="M203.092 100.514L188.31 86.04C187.95 85.7006 187.348 85.7157 186.982 86.0885C186.615 86.4612 186.597 87.0525 186.957 87.3919L201.739 101.866C202.099 102.205 202.701 102.19 203.067 101.817C203.463 101.489 203.481 100.898 203.092 100.514Z" fill="#3D248A"/>
<path d="M211.542 93.7642L208.238 82.3683C208.115 81.8729 207.54 81.6155 207.059 81.8089C206.548 81.9577 206.255 82.5391 206.425 83.0031L209.728 94.399C209.851 94.8943 210.426 95.1517 210.907 94.9583C211.388 94.7649 211.664 94.2595 211.542 93.7642Z" fill="#3D248A"/>
<path d="M139.72 97.305C140.344 105.469 134.922 113.03 126.945 110.135C125.605 109.657 124.372 108.651 123.338 107.675C120.855 105.31 119.862 102.395 119.494 99.2391C119.076 95.9453 119.349 92.3811 119.402 88.8352C119.4 88.316 118.985 87.9023 118.478 87.8505C117.97 87.7986 117.549 88.1881 117.551 88.7073C117.523 92.3219 117.276 95.9548 117.674 99.2974C118.083 102.875 119.292 106.173 122.119 108.864C123.338 110.036 124.821 111.21 126.43 111.807C135.638 115.189 142.295 106.792 141.566 97.3154C141.499 96.8252 141.084 96.4115 140.557 96.4085C140.075 96.4254 139.654 96.8149 139.72 97.305Z" fill="#3D248A"/>
<path d="M119.761 88.0168C118.083 87.194 116.191 86.0317 115.509 84.257C114.401 81.8034 115.645 78.5051 118.663 78.6093C120.046 78.6471 121.196 79.4818 122.429 80.1081C122.948 80.3374 123.46 80.1538 123.702 79.7697C123.898 79.2833 123.668 78.7721 123.25 78.5061C121.794 77.7815 120.348 76.8158 118.714 76.7493C114.415 76.5706 112.36 81.2297 113.901 84.7751C114.842 86.9915 117.02 88.526 119.219 89.5781C119.738 89.8074 120.249 89.6238 120.417 89.2069C120.483 88.8268 120.281 88.2461 119.761 88.0168Z" fill="#3D248A"/>
<path d="M120.846 73.8581C119.411 77.4203 128.052 91.4096 141.292 96.5382C153.291 101.118 162.259 84.1824 149.98 74.9594C135.513 64.1232 120.846 73.8581 120.846 73.8581Z" fill="#3D248A"/>
<path d="M124.144 79.9791C122.989 79.3872 121.648 79.0399 120.381 78.7251C117.099 78.0096 113.588 79.8054 114.836 83.6224C115.909 86.791 123.336 91.0522 118.711 94.3151C115.531 96.5842 110.894 94.0453 108.04 92.0498C101.245 87.0877 98.2972 78.846 99.9268 71.5652C101.556 64.2844 110.589 60.0293 118.198 61.6772C124.763 63.1082 131.743 68.4781 130.78 75.4005L124.144 79.9791Z" fill="#3D248A"/>
<path d="M174.28 152.587C165.176 157.938 154.536 163.595 138.892 170.431C132.189 173.412 124.655 173.38 118.461 170.42C109.752 166.317 97.6918 159.868 91.0144 153.142C88.8532 150.954 87.2266 148.753 86.5429 146.637C85.8929 144.657 86.0806 142.647 87.2996 140.769C92.0795 133.792 98.8052 133.049 105.706 135.149C112.926 137.3 120.213 142.472 125.727 147.006C132.226 152.409 141.378 153.993 149.984 151.25C160.146 147.977 172.025 144.201 172.025 144.201C172.526 144.054 172.854 143.523 172.664 143.072C172.546 142.6 172.015 142.322 171.531 142.536C171.531 142.536 159.652 146.313 149.49 149.586C141.528 152.14 133.016 150.657 127.009 145.689C121.373 140.973 113.767 135.75 106.369 133.506C98.652 131.212 91.1226 132.119 85.7079 139.933C82.6349 144.527 84.685 149.644 89.5171 154.523C96.3883 161.409 108.626 167.951 117.511 172.147C124.219 175.317 132.359 175.316 139.563 172.188C155.35 165.31 166.045 159.565 175.237 154.261C175.704 153.979 175.872 153.423 175.611 152.993C175.315 152.428 174.747 152.305 174.28 152.587Z" fill="#3D248A"/>
<path d="M171.834 144.612C171.858 139.01 173.95 133.418 178.517 129.614C179.507 128.834 181.261 127.862 182.869 127.594C183.673 127.459 184.396 127.468 184.935 127.864C185.294 128.127 185.472 128.519 185.547 129.153C185.718 130.322 185.09 131.106 184.303 131.659C183.212 132.423 181.803 132.982 180.734 133.645C177.668 135.451 175.657 138.408 175.509 141.863C175.505 142.382 175.883 142.804 176.406 142.782C176.928 142.759 177.372 142.361 177.377 141.843C177.499 139.007 179.184 136.622 181.605 135.183C182.674 134.519 184.144 133.918 185.295 133.111C186.688 132.134 187.642 130.778 187.337 128.758C187.205 127.647 186.689 126.892 186.11 126.438C185.492 125.926 184.711 125.701 183.828 125.719C181.66 125.692 178.778 127.111 177.343 128.289C172.331 132.491 169.974 138.612 169.986 144.791C169.982 145.31 170.42 145.689 170.942 145.667C171.425 145.587 171.83 145.131 171.834 144.612Z" fill="#3D248A"/>
<path d="M177.471 142.512C180.825 139.385 185.469 136.302 190.081 137.386C191.168 137.66 192.356 137.949 193.096 138.899C194.055 140.039 194.221 141.994 192.582 142.625C192.015 142.849 191.27 142.681 190.586 142.47C189.66 142.17 188.734 141.869 187.949 141.642C186.096 141.301 184.114 141.827 182.315 142.224C181.831 142.305 181.463 142.821 181.52 143.3C181.577 143.778 182.079 144.117 182.564 144.036C184.201 143.665 185.859 143.194 187.511 143.503C188.418 143.644 189.503 144.179 190.55 144.394C191.497 144.594 192.324 144.618 193.113 144.324C196.108 143.174 196.196 139.747 194.437 137.7C193.437 136.501 192.029 136.021 190.498 135.626C185.303 134.347 179.991 137.638 176.129 141.208C175.743 141.565 175.718 142.187 176.018 142.494C176.52 142.833 177.085 142.869 177.471 142.512Z" fill="#3D248A"/>
<path d="M182.31 144.069C185.252 144.527 187.383 144.858 189.006 147.628C189.226 148.081 189.465 148.695 189.44 149.32C189.457 149.742 189.373 150.148 188.903 150.39C188.557 150.546 188.273 150.397 187.99 150.248C187.362 149.993 186.817 149.594 186.331 149.413C184.549 148.664 182.659 148.685 180.708 148.748C180.18 148.771 179.77 149.232 179.766 149.755C179.762 150.279 180.206 150.662 180.734 150.64C182.381 150.529 184.006 150.52 185.545 151.178C186.133 151.375 186.86 151.907 187.589 152.178C188.318 152.449 189.111 152.415 189.764 152.044C190.601 151.545 191.074 150.78 191.203 149.909C191.374 148.835 191.059 147.58 190.598 146.774C188.674 143.434 186.22 142.895 182.669 142.343C182.161 142.264 181.671 142.607 181.566 143.115C181.481 143.521 181.802 143.99 182.31 144.069Z" fill="#3D248A"/>
<path d="M144.488 214.127L105.665 237.964L77.5766 224.164C73.0144 208.751 77.3977 200.237 85.9852 191.814L133.127 190.47L144.488 214.127Z" fill="#3D248A"/>
<path d="M118.645 91.2919C120.796 97.1245 117.274 103.638 112.231 106.476C109.518 107.998 105.108 108.769 102.545 105.946C100.257 103.432 102.999 99.107 104.512 97.3359C104.906 96.8533 105.514 96.0895 106.183 95.9164C106.417 95.8322 105.8 96.1225 105.566 96.2067C105.332 96.291 105.066 96.4549 104.833 96.5392C104.216 96.8295 103.748 96.998 103.078 97.171C101.154 97.7278 98.2112 97.834 96.5157 96.333C94.6824 94.6773 95.5693 92.723 97.1766 91.463C97.7407 91.0554 98.3897 90.6855 99.0387 90.3155C99.3895 90.1892 99.5065 90.1471 99.9423 90.0582C100.059 90.0161 100.516 90.1241 100.378 89.9694C97.8543 88.2898 92.1408 87.8273 93.0658 83.5434C93.5604 81.3217 96.3032 80.4701 98.3744 80.5415C100.446 80.613 102.515 81.4344 104.531 82.1386C106.632 82.8804 108.819 83.6598 110.642 84.8421L118.645 91.2919Z" fill="#3D248A"/>
<path d="M141.875 95.255C144.523 95.7551 147.243 97.3331 149.282 99.0863C150.328 100.022 151.503 101.395 151.24 102.801C150.657 106.252 145.278 104.454 143.281 103.1C143.055 102.905 143.701 103.57 144.014 103.803C144.608 104.349 144.92 104.582 145.481 105.209C147.088 106.772 149.318 109.561 147.68 111.597C146.562 113.101 143.821 111.324 142.742 110.469C142.289 110.079 141.836 109.689 141.469 109.338C141.329 109.181 141.168 108.825 141.135 108.905C141.124 109.186 141.521 110.216 141.509 110.496C141.841 111.688 141.837 113.208 141.088 114.304C140.404 115.239 139.302 114.944 138.396 114.165C137.231 113.271 136.35 111.172 136.375 109.852C136.377 109.093 137.049 108.438 137.451 107.949C137.983 107.137 138.375 106.169 138.82 105.319C140.234 102.329 141.12 98.6304 140.881 95.1974L141.875 95.255Z" fill="#3D248A"/>
<path d="M177.245 159.967C185.078 160.259 192.695 160.155 196.122 159.441C196.638 159.35 196.938 158.863 196.859 158.349C196.781 157.835 196.301 157.548 195.785 157.639C192.358 158.353 184.936 158.407 177.298 158.065C176.794 158.03 176.311 158.441 176.264 158.946C176.399 159.527 176.798 160 177.245 159.967Z" fill="#3D248A"/>
<path d="M214.971 170.143C214.855 170.172 214.332 170.243 213.865 170.361C212.059 170.754 208.725 171.77 204.407 172.853C195.655 175.05 183.013 177.805 171.058 178.122C162.917 178.317 155.052 177.488 148.838 174.635C148.388 174.39 148.182 173.845 148.376 173.379C148.57 172.913 149.098 172.721 149.61 172.891C155.596 175.682 163.177 176.403 171.03 176.221C182.929 175.858 195.454 173.133 204.029 171.04C209.047 169.781 212.67 168.753 214.243 168.418C214.826 168.271 215.171 168.304 215.343 168.32C220.884 169.494 225.663 167.162 228.674 163.126C233.34 156.947 234.036 146.755 227.258 138.558C226.93 138.163 226.958 137.56 227.374 137.276C227.736 136.947 228.308 137.042 228.636 137.437C236.014 146.378 235.274 157.535 230.119 164.314C226.625 168.828 221.141 171.457 214.971 170.143Z" fill="#3D248A"/>
<path d="M104.089 182.002C104.149 181.544 104.149 181.086 104.21 180.653C104.27 178.948 104.27 177.242 104.392 175.537C104.452 174.341 104.573 173.17 104.392 171.974C104.331 171.464 104.634 170.981 105.119 170.904C105.603 170.828 106.088 171.159 106.209 171.668C106.452 172.992 106.33 174.315 106.209 175.639C106.088 177.344 106.149 179.05 106.027 180.755C106.027 181.315 105.967 181.849 105.906 182.409C105.906 182.613 105.906 182.664 105.906 182.791C105.967 182.919 105.967 183.071 106.027 183.148C106.027 183.377 105.967 183.58 105.846 183.758C105.724 183.937 105.482 184.217 104.937 184.166C103.664 184.038 102.029 182.995 101.241 182.613C98.5749 181.289 96.0908 179.864 93.6066 178.464C92.8795 178.057 92.1524 177.701 91.4253 177.293C91.3041 177.751 91.3042 178.235 91.2436 178.693C91.183 179.457 91.1224 180.195 91.0618 180.959C90.9406 181.926 90.6983 182.893 90.5771 183.86C90.5165 184.369 90.0924 184.726 89.5471 184.675C89.0623 184.624 88.6988 184.166 88.6988 183.657C88.82 182.664 89.0623 181.671 89.1835 180.704C89.3047 179.991 89.3047 179.253 89.3653 178.541C89.4259 177.675 89.4864 176.81 89.9106 175.97C89.9712 175.741 90.153 175.41 90.3347 175.282C90.5165 175.181 90.6983 175.079 91.0618 175.104C91.183 175.104 91.4253 175.181 91.6677 175.308C91.8495 175.41 92.213 175.639 92.2736 175.69C93.0007 176.097 93.7277 176.479 94.4548 176.861C96.939 178.235 99.3626 179.66 102.028 180.984C102.453 181.137 103.301 181.671 104.089 182.002ZM89.85 175.919C89.7894 175.995 89.7894 176.122 89.7894 176.122C89.7894 176.122 89.85 176.046 89.85 175.919Z" fill="#3D248A"/>
<path d="M164.623 7.57809L161.524 41.2163L171.812 41.1763L181.245 58.9638L183.114 26.6485L170.732 30.1306L164.623 7.57809Z" fill="#FFC700"/>
<path d="M220.455 138.21C220.008 137.493 219.561 136.597 219.292 135.79C218.934 134.626 218.934 133.371 219.471 132.475C219.918 131.758 220.366 131.399 220.992 131.22C221.529 131.041 222.065 131.131 222.692 131.31C224.033 131.758 225.375 133.102 226.091 133.909C226.449 134.267 227.611 135.701 227.969 136.059C228.327 136.418 228.417 136.955 228.148 137.404C227.79 137.762 227.254 137.852 226.806 137.583C226.359 137.224 225.017 135.701 224.659 135.253C224.212 134.715 223.407 133.909 222.513 133.371C222.155 133.192 221.797 133.013 221.529 133.102C221.35 133.192 221.26 133.281 221.081 133.461C220.813 133.998 220.902 134.626 221.081 135.342C221.439 136.687 222.334 137.941 222.96 138.748C223.318 139.285 223.675 139.733 224.033 140.181C224.123 140.361 224.391 140.63 224.57 140.719C224.749 140.898 224.749 141.167 224.749 141.257C224.749 141.526 224.659 141.705 224.57 141.884C224.481 142.063 224.212 142.243 223.854 142.332C223.675 142.332 223.407 142.332 223.049 142.153C222.692 141.974 222.155 141.346 221.976 141.257C221.26 140.719 220.545 140.092 219.65 140.002C218.934 139.913 218.398 139.913 218.219 140.271C217.95 140.63 218.04 141.167 218.308 141.795C218.845 143.049 219.65 143.945 220.634 144.841C221.708 145.917 222.781 146.902 223.586 148.157C223.854 148.515 223.765 148.784 223.675 148.964C223.586 149.322 223.318 149.591 222.781 149.591C222.692 149.591 222.602 149.591 222.513 149.501C222.423 149.501 222.155 149.322 222.155 149.322C221.976 149.232 221.797 149.143 221.708 149.143C221.26 148.874 220.724 148.695 220.276 148.515C219.65 148.247 218.577 147.978 217.682 147.978C217.056 147.978 216.34 148.067 216.161 148.784C216.072 148.964 216.161 149.053 216.161 149.232C216.251 149.501 216.43 149.77 216.519 150.039C217.324 151.383 218.934 152.369 220.187 153.086C220.724 153.444 221.35 153.713 221.976 153.892C222.513 153.982 222.781 154.519 222.602 155.057C222.513 155.595 221.976 155.864 221.439 155.684C220.634 155.505 219.918 155.147 219.203 154.788C217.593 153.892 215.714 152.638 214.82 151.025C214.372 150.218 213.925 149.143 214.283 148.247C214.73 147.082 215.625 146.544 216.788 146.365C217.682 146.186 218.666 146.365 219.561 146.544L219.292 146.275C218.219 145.2 217.145 144.035 216.609 142.601C216.072 141.167 216.161 140.002 216.788 139.285C217.324 138.568 218.487 138.12 220.008 138.389C220.097 138.12 220.276 138.21 220.455 138.21Z" fill="white"/>
<path d="M232.973 323.127L212.738 340.565L207.464 318.945L232.973 323.127Z" fill="#FFC700"/>
<path d="M45.4688 241.891L24.276 228.52L44.8096 216.466L45.4688 241.891Z" fill="#3D248A"/>
<path d="M34.9609 125.125C35.3138 124.884 35.8009 124.859 36.2125 125.1C36.6242 125.341 36.8506 125.783 36.827 126.216L36.2973 133.754L41.0918 140.034C41.3617 140.398 41.4204 140.88 41.2032 141.269C40.986 141.658 40.5508 141.851 40.1071 141.798L32.3876 140.761L26.3142 145.057C25.9613 145.298 25.4743 145.323 25.0626 145.082C24.651 144.842 24.4245 144.399 24.4481 143.966L24.9779 136.428L20.1833 130.148C19.9134 129.784 19.8547 129.302 20.0719 128.913C20.2891 128.524 20.7243 128.331 21.168 128.384L28.8876 129.421L34.9609 125.125Z" fill="#9C63FF"/>
<path d="M28.5902 128.455L34.3673 124.364C35.0168 123.918 35.9071 123.887 36.6207 124.305C37.3617 124.738 37.7887 125.538 37.7156 126.322L37.2079 133.494L41.7732 139.468C42.2726 140.138 42.3641 141.018 41.9876 141.693C41.5966 142.393 40.81 142.759 40.0065 142.634L32.6608 141.643L26.8967 145.776C26.2472 146.222 25.3569 146.252 24.6433 145.835C23.9023 145.402 23.4753 144.601 23.5484 143.818L24.0561 136.646L19.4908 130.672C18.9914 130.001 18.8998 129.122 19.2764 128.447C19.6673 127.746 20.454 127.38 21.2575 127.506L28.5902 128.455ZM35.5292 125.869C35.6001 125.808 35.6969 125.83 35.7518 125.862C35.8342 125.91 35.8601 125.994 35.8586 126.062L35.3288 133.6C35.3098 133.83 35.3746 134.04 35.5232 134.23L40.3181 140.51C40.3859 140.584 40.3699 140.678 40.341 140.73C40.2975 140.808 40.2136 140.827 40.1443 140.821L32.4517 139.8C32.2162 139.765 31.9921 139.841 31.8228 139.948L25.7492 144.244C25.6784 144.306 25.5815 144.284 25.5267 144.252C25.4443 144.204 25.4184 144.12 25.4199 144.052L25.9497 136.514C25.9687 136.284 25.9039 136.074 25.7552 135.884L20.9459 129.63C20.8781 129.556 20.8941 129.462 20.923 129.41C20.9665 129.332 21.0503 129.312 21.1197 129.318L28.8397 130.356C29.0753 130.391 29.2994 130.315 29.4686 130.208L35.5292 125.869Z" fill="#9C63FF"/>
<path d="M69.0995 267.073C46.1993 264.564 19.1843 280.067 6.03464 298.079C-0.0482153 306.502 -1.21111 314.657 1.11468 321.557C4.60338 331.863 15.6956 339.48 29.2926 340.913C39.3114 341.989 48.883 339.569 58.6334 337.508C87.0797 331.325 115.079 316.36 143.525 304.979C171.792 293.688 200.418 286.071 230.295 294.315C230.742 294.494 231.279 294.136 231.458 293.688C231.637 293.24 231.279 292.702 230.832 292.523C200.507 284.099 171.435 291.806 142.809 303.187C114.453 314.478 86.543 329.443 58.1861 335.626C48.6146 337.687 39.222 340.107 29.3821 339.032C16.6796 337.598 6.12409 330.608 2.90376 320.84C0.756868 314.388 1.83031 306.861 7.55535 299.064C20.3472 281.5 46.6466 266.446 68.9206 268.865C69.4573 268.955 69.9046 268.596 69.9046 268.059C69.9046 267.521 69.5468 267.073 69.0995 267.073Z" fill="#3D248A"/>
</svg>
