<svg width="1413" height="588" viewBox="0 0 1413 588" fill="none" xmlns="http://www.w3.org/2000/svg">
<path d="M561.183 277.255C589.46 270.696 615.198 296.489 634.066 318.548C652.925 340.596 672.391 369.286 663.539 396.916C655.114 423.214 619.151 424.147 595.612 438.584C578.538 449.056 566.195 466.189 546.336 468.798C521.471 472.064 493.101 472.153 475.417 454.372C457.066 435.92 449.92 405.425 459.085 381.068C467.277 359.299 499.932 362.459 516.242 345.876C536.173 325.61 533.494 283.677 561.183 277.255Z" fill="#FFC700"/>
<path d="M91.7663 362.052C83.6117 320.801 82.823 278.32 95.9565 237.615C109.792 194.736 131.793 152.631 168.661 123.733C205.759 94.6552 254.024 72.553 301.303 76.6598C347.081 80.6361 369.765 133.868 413.95 145.039C465.373 158.04 525.278 121.907 572.155 145.137C621.478 169.581 679.725 218.584 667.459 270.672C653.299 330.81 553.398 334.661 515.544 385.552C490.18 419.652 529.37 481.534 492.98 505.245C455.386 529.74 407.155 488.433 362.248 485.437C329.995 483.286 298.948 492.166 266.682 490.148C223.937 487.474 175.596 496.113 142.226 471.675C108.337 446.857 99.6804 402.086 91.7663 362.052Z" fill="white"/>
<path d="M380.965 447.448L367.521 519.785L322 476.722L380.965 447.448Z" fill="#00D5FF"/>
<path d="M1338.57 355.449L1336.45 493.073L1239 427.92L1338.57 355.449Z" fill="#FFC700"/>
<path d="M12.6004 480.666L3.23013 451.626L28.3332 458.352L12.6004 480.666Z" fill="#E1E1E1"/>
<path d="M1188.41 104.179L1375.48 159.269L1256.46 285.131L1188.41 104.179Z" stroke="#E1E1E1" stroke-width="3"/>
<path d="M87.2647 161.339L132.016 217.74L46.3792 233.648L87.2647 161.339Z" fill="#FFC700"/>
<path d="M741.738 519.393L729.85 482L763.196 492.617L741.738 519.393Z" fill="#FF5784"/>
<path d="M580.799 192.556L598.493 92.9998L661.845 157.184L580.799 192.556Z" fill="#FF5784"/>
<path d="M566.262 426.115C566.262 424.855 565.764 423.648 564.867 422.736C563.97 421.85 562.765 421.341 561.496 421.341C549.825 421.341 519.933 421.341 508.262 421.341C507.003 421.341 505.788 421.85 504.891 422.736C503.994 423.621 503.496 424.855 503.496 426.115C503.496 427.376 503.994 428.583 504.891 429.495C505.788 430.38 506.993 430.89 508.262 430.89C519.933 430.89 549.825 430.89 561.496 430.89C562.755 430.89 563.97 430.38 564.867 429.495C565.764 428.61 566.262 427.376 566.262 426.115Z" fill="white"/>
<path d="M331.526 404.241C331.526 401.613 329.391 399.467 326.764 399.467C318.564 399.467 301.879 399.467 293.679 399.467C291.046 399.467 288.917 401.613 288.917 404.241C288.917 406.87 291.052 409.016 293.679 409.016C301.879 409.016 318.564 409.016 326.764 409.016C329.391 409.016 331.526 406.897 331.526 404.241Z" fill="#E1E1E1"/>
<path d="M167.558 416.592C167.558 413.963 165.424 411.817 162.793 411.817C160.435 411.817 157.597 411.817 155.239 411.817C152.607 411.817 150.474 413.963 150.474 416.592C150.474 419.221 152.607 421.366 155.239 421.366C157.597 421.366 160.435 421.366 162.793 421.366C165.424 421.34 167.558 419.221 167.558 416.592Z" fill="#E1E1E1"/>
<path d="M541.887 399.493C541.887 396.865 539.753 394.719 537.122 394.719C534.764 394.719 531.926 394.719 529.568 394.719C526.936 394.719 524.803 396.865 524.803 399.493C524.803 402.122 526.936 404.268 529.568 404.268C531.926 404.268 534.764 404.268 537.122 404.268C539.753 404.241 541.887 402.122 541.887 399.493Z" fill="white"/>
<path d="M288.914 432.707C288.914 431.446 288.407 430.239 287.518 429.327C286.629 428.442 285.408 427.933 284.147 427.933C271.129 427.933 235.072 427.933 222.054 427.933C220.792 427.933 219.582 428.442 218.683 429.327C217.794 430.213 217.287 431.446 217.287 432.707C217.287 433.968 217.794 435.175 218.683 436.087C219.572 436.972 220.792 437.482 222.054 437.482C235.072 437.482 271.129 437.482 284.147 437.482C285.408 437.482 286.618 436.972 287.518 436.087C288.407 435.175 288.914 433.968 288.914 432.707Z" fill="#E1E1E1"/>
<path d="M422.499 218.931H311.937V253.547H422.499V218.931Z" fill="#00D5FF"/>
<path d="M544.989 275.439H488.609V306.33H544.989V275.439Z" fill="#FF5784"/>
<path d="M362.929 312.408H284.596V376.735H362.929V312.408Z" fill="#FFC700"/>
<path d="M456.617 309.138C464.893 295.526 462.084 279.219 450.343 272.732C438.603 266.245 422.363 272.026 414.086 285.637L456.617 309.138Z" fill="#FF5784"/>
<path d="M460.406 255.311C460.406 255.311 449.728 259.818 442.56 253.27C435.011 246.359 439.198 241.569 442.031 241.266C450.362 240.417 460.406 255.311 460.406 255.311Z" fill="#3D248A"/>
<path d="M412.981 323.05L400.832 346.27C397.926 351.828 395.827 357.708 394.737 363.811C393.647 369.854 393.405 376.017 394.172 382.181L394.979 388.506L395.443 393.963L406.362 393.013L405.897 387.557L405.615 381.191C405.393 376.24 405.998 371.329 407.229 366.58C408.46 361.912 410.479 357.466 413.082 353.323L427.047 331.154L431.084 324.121L417.017 316.018L412.981 323.05Z" fill="#3D248A"/>
<path d="M432.227 336.094L432.522 356.619C432.608 362.688 434.243 368.361 437.432 372.99C440.542 377.528 444.858 381.227 450.244 383.266L457.017 385.842L461.932 387.987L466.922 377.761L462.006 375.616L455.54 372.392C452.494 370.878 450.226 368.394 448.642 365.515C447.121 362.743 446.581 359.465 446.855 356.063L448.516 335.45L448.779 327.241L432.49 327.885L432.227 336.094Z" fill="#3D248A"/>
<path d="M396.665 404.542L396.176 401.706L395.85 397.852L403.551 397.206L403.877 401.06L403.855 406.326L404.083 409.006L392.787 411.867L390.311 412.68L388.692 407.714L391.169 406.9L396.665 404.542Z" fill="#FF5784"/>
<path d="M389.6 416.467L404.247 412.459C404.688 412.33 404.957 411.877 404.835 411.425C404.712 410.972 404.247 410.714 403.806 410.843L389.159 414.851C388.718 414.98 388.448 415.432 388.571 415.885C388.693 416.337 389.159 416.596 389.6 416.467Z" fill="#3D248A"/>
<path d="M395.664 401.563C396.33 401.603 396.996 401.482 397.662 401.523C398.126 401.543 398.51 401.179 398.55 400.734C398.57 400.27 398.227 399.886 397.763 399.845C397.117 399.805 396.451 399.946 395.785 399.906C395.321 399.865 394.917 400.229 394.897 400.694C394.837 401.118 395.2 401.523 395.664 401.563Z" fill="#3D248A"/>
<path d="M395.967 404.594C396.653 404.736 397.359 404.938 398.046 405.059C398.51 405.14 398.934 404.837 399.014 404.392C399.095 403.927 398.792 403.503 398.328 403.422C397.642 403.301 396.976 403.119 396.29 402.978C395.846 402.876 395.402 403.18 395.301 403.624C395.22 404.069 395.523 404.513 395.967 404.594Z" fill="#3D248A"/>
<path d="M473.275 391.402L470.76 390.437L467.544 388.824L471.649 381.646L474.864 383.259L478.978 385.879L481.215 387L476.694 398.473L475.849 401.081L470.988 400.069L471.832 397.462L473.275 391.402Z" fill="#FF5784"/>
<path d="M478.928 403.805L484.325 389.247C484.481 388.805 484.296 388.356 483.885 388.245C483.475 388.135 483.013 388.412 482.857 388.855L477.459 403.412C477.303 403.854 477.489 404.303 477.899 404.414C478.31 404.525 478.772 404.247 478.928 403.805Z" fill="#3D248A"/>
<path d="M470.09 390.591C470.508 390.032 470.802 389.395 471.22 388.835C471.505 388.442 471.451 387.933 471.136 387.684C470.794 387.442 470.303 387.555 470.003 387.939C469.597 388.481 469.318 389.128 468.9 389.687C468.6 390.071 468.642 390.597 468.984 390.839C469.299 391.088 469.79 390.975 470.09 390.591Z" fill="#3D248A"/>
<path d="M472.809 392.015C473.319 391.484 473.887 390.965 474.381 390.424C474.714 390.058 474.73 389.541 474.437 389.255C474.128 388.959 473.626 389.018 473.292 389.384C472.798 389.925 472.27 390.419 471.76 390.949C471.423 391.288 471.395 391.823 471.677 392.127C471.97 392.412 472.488 392.363 472.809 392.015Z" fill="#3D248A"/>
<path d="M413.667 321.959L432.335 335.661L447.733 336.409L449.63 327.092L417.32 315.978L413.667 321.959Z" fill="#3D248A"/>
<path d="M442.19 303.869L431.652 297.565C431.483 297.47 431.409 297.262 431.468 297.045C431.526 296.828 431.67 296.659 431.85 296.593L446.923 291.648C447.174 291.563 447.419 291.736 447.445 292C447.471 292.264 447.294 292.558 447.044 292.644L433.144 297.211L443.789 303.598C443.958 303.693 444.032 303.901 443.973 304.118C443.915 304.335 443.771 304.504 443.56 304.565L430.474 307.684L440.084 313.337C440.253 313.432 440.327 313.64 440.268 313.857C440.209 314.074 440.066 314.243 439.855 314.303L426.365 318.195C426.115 318.281 425.869 318.108 425.852 317.813C425.826 317.548 426.002 317.255 426.253 317.169L438.507 313.644L428.813 307.943C428.644 307.848 428.57 307.641 428.629 307.424C428.687 307.207 428.839 307.006 429.042 306.977L442.19 303.869Z" fill="#3D248A"/>
<path d="M419.04 273.575C414.701 276.222 411.048 276.889 408.021 276.263C405.216 275.677 402.975 273.979 401.24 271.776C398.596 268.402 397.123 263.875 396.719 260.197C396.699 259.914 396.437 259.712 396.154 259.752C395.872 259.772 395.67 260.035 395.71 260.318C396.114 264.158 397.668 268.887 400.433 272.403C402.309 274.788 404.772 276.606 407.799 277.253C411.028 277.94 414.943 277.273 419.564 274.444C419.807 274.303 419.887 273.979 419.726 273.737C419.585 273.494 419.262 273.434 419.04 273.575Z" fill="#3D248A"/>
<path d="M394.379 255.257C394.178 252.085 393.35 248.487 391.332 245.961C390.989 245.537 390.262 244.749 389.536 244.405C388.89 244.102 388.224 244.102 387.699 244.688C387.376 245.032 387.195 245.476 387.155 245.961C387.074 246.588 387.195 247.255 387.336 247.8C387.82 249.639 388.507 251.418 388.93 253.257C388.991 253.519 389.274 253.701 389.536 253.641C389.798 253.58 389.98 253.297 389.919 253.034C389.475 251.175 388.789 249.397 388.305 247.538C388.204 247.174 388.123 246.729 388.123 246.305C388.123 245.961 388.204 245.618 388.426 245.355C388.608 245.153 388.85 245.193 389.092 245.315C389.677 245.597 390.262 246.244 390.525 246.588C392.422 248.952 393.169 252.347 393.35 255.318C393.37 255.601 393.612 255.803 393.895 255.783C394.178 255.783 394.4 255.54 394.379 255.257Z" fill="#3D248A"/>
<path d="M392.217 257.061C391.814 256.111 391.43 255.141 390.865 254.252C390.3 253.363 389.351 252.655 388.383 252.352C387.676 252.15 386.97 252.17 386.405 252.474C385.8 252.797 385.295 253.444 385.134 254.555C384.992 255.525 385.315 256.536 385.921 257.465C386.748 258.758 388.12 259.89 389.23 260.456C389.654 260.678 390.401 260.961 391.087 261.002C391.652 261.042 392.157 260.901 392.5 260.537C392.702 260.335 392.681 260.011 392.48 259.83C392.278 259.627 391.955 259.648 391.773 259.85C391.632 260.011 391.39 260.032 391.148 260.011C390.623 259.991 390.038 259.749 389.695 259.587C388.706 259.082 387.515 258.092 386.788 256.96C386.344 256.253 386.042 255.485 386.163 254.757C386.264 254.07 386.526 253.625 386.91 253.423C387.273 253.241 387.697 253.262 388.141 253.383C388.887 253.605 389.614 254.151 390.058 254.838C390.583 255.667 390.946 256.576 391.329 257.485C391.43 257.748 391.733 257.869 391.995 257.768C392.197 257.607 392.338 257.324 392.217 257.061Z" fill="#3D248A"/>
<path d="M385.537 255.929C385.093 255.869 384.629 255.788 384.165 255.849C382.591 256.01 381.925 257.728 382.268 259.102C382.53 260.194 384.044 261.931 385.638 262.72C386.829 263.285 388.04 263.326 388.887 262.437C389.089 262.235 389.069 261.911 388.867 261.729C388.665 261.527 388.343 261.548 388.161 261.75C387.616 262.315 386.849 262.174 386.082 261.81C384.77 261.164 383.479 259.769 383.257 258.88C383.055 258.072 383.338 256.98 384.286 256.879C384.649 256.839 385.033 256.92 385.396 256.96C385.679 257.001 385.921 256.798 385.961 256.536C386.022 256.212 385.82 255.97 385.537 255.929Z" fill="#3D248A"/>
<path d="M385.846 267.329C386.472 270.906 388.126 274.321 389.862 277.474C393.918 284.87 403.848 297.218 421.103 292.55C421.365 292.469 421.526 292.206 421.466 291.923C421.385 291.661 421.123 291.499 420.84 291.559C404.211 296.046 394.665 284.102 390.75 276.989C389.075 273.917 387.44 270.623 386.835 267.147C386.795 266.864 386.532 266.682 386.25 266.743C385.987 266.784 385.806 267.046 385.846 267.329Z" fill="#3D248A"/>
<path d="M443.152 252.438C439.739 256.176 439.109 259.696 440.126 262.3C441.167 264.952 443.879 266.736 447.316 266.929C448.478 267.002 449.689 266.712 450.778 266.326C453.321 265.458 454.894 263.819 456.105 261.842C457.243 259.937 458.041 257.719 458.961 255.573C459.083 255.308 458.961 255.018 458.695 254.898C458.429 254.777 458.138 254.898 458.017 255.163C457.097 257.261 456.347 259.455 455.233 261.311C454.144 263.096 452.739 264.566 450.464 265.362C449.495 265.7 448.406 265.965 447.389 265.892C444.411 265.7 441.99 264.205 441.094 261.89C440.174 259.551 440.852 256.441 443.927 253.089C444.121 252.872 444.096 252.559 443.903 252.366C443.661 252.221 443.346 252.245 443.152 252.438Z" fill="#3D248A"/>
<path d="M460.647 255.327C460.647 255.327 453.212 248.716 451.126 246.394C444.956 239.497 456.725 233.351 459.898 242.749C461.664 247.93 460.826 252.022 460.647 255.327Z" fill="#3D248A"/>
<path d="M455.513 261.204C459.045 259.345 463.379 256.617 464.986 252.959C465.768 251.161 465.198 248.574 462.681 249.665C460.715 250.534 459.7 252.414 458.77 254.192C457.776 256.071 455.513 261.204 455.513 261.204Z" fill="#3D248A"/>
<path d="M475.971 331.614C480.253 324.653 481.051 314.014 478.674 304.618C476.039 294.27 469.306 284.278 460.472 280.343C456.267 278.48 452.084 279.97 450.928 284.352C449.787 288.73 452.423 293.318 456.235 296.253C462.052 300.71 464.974 302.671 467.197 307.986C469.722 314.007 470.719 320.733 468.777 326.068C468.687 326.324 468.811 326.646 469.05 326.783C469.294 326.938 469.555 326.854 469.645 326.598C471.677 321.007 470.657 313.974 468.02 307.668C465.704 302.122 462.709 300.042 456.651 295.391C453.233 292.769 450.788 288.7 451.811 284.78C452.825 280.882 456.555 279.62 460.271 281.271C468.78 285.051 475.244 294.718 477.765 304.684C480.075 313.784 479.314 324.102 475.154 330.856C475.016 331.066 475.096 331.398 475.308 331.6C475.548 331.834 475.833 331.823 475.971 331.614Z" fill="#3D248A"/>
<path d="M462.935 332.566C462.29 332.509 461.608 332.471 460.963 332.357C459.923 332.186 458.955 331.825 458.202 331.027C457.001 329.792 457.521 327.646 458.919 326.886C459.744 326.43 460.837 326.487 461.716 326.601C463.079 326.772 464.549 327.114 465.858 327.551C466.126 327.646 466.27 327.931 466.18 328.197C466.091 328.462 465.804 328.614 465.535 328.519C464.28 328.102 462.881 327.779 461.59 327.627C460.909 327.532 460.067 327.437 459.439 327.779C458.596 328.253 458.238 329.545 458.973 330.305C459.582 330.932 460.353 331.198 461.178 331.331C462.092 331.483 463.061 331.502 463.921 331.597C464.136 331.616 464.244 331.73 464.316 331.825C464.387 331.92 464.423 332.034 464.423 332.167C464.423 332.243 464.387 332.357 464.334 332.471C464.28 332.547 464.154 332.68 464.118 332.737C464.029 332.87 463.939 333.022 463.832 333.155C463.509 333.61 463.168 334.028 462.81 334.427C462.559 334.712 462.29 334.997 462.021 335.282C461.483 335.871 460.604 336.916 460.228 337.98C460.031 338.568 459.959 339.138 460.318 339.613C460.425 339.746 460.604 339.803 460.784 339.803C461.035 339.822 461.304 339.765 461.519 339.689C462.11 339.461 462.63 339.024 463.114 338.53C463.67 337.98 464.172 337.372 464.656 336.878C464.979 336.555 465.266 336.213 465.571 335.89C465.589 335.871 465.804 335.605 465.858 335.567C466.109 335.358 466.342 335.453 466.413 335.472C466.557 335.529 466.628 335.624 466.682 335.7C466.754 335.814 466.79 335.966 466.754 336.118C466.736 336.232 466.664 336.384 466.521 336.517C466.431 336.612 466.27 336.726 466.198 336.821C465.929 337.201 465.696 337.6 465.463 337.999C465.087 338.644 464.62 339.347 464.352 340.107C464.118 340.734 464.047 341.399 464.405 342.064C464.495 342.216 464.62 342.254 464.764 342.235C464.925 342.235 465.105 342.178 465.266 342.102C466.252 341.703 466.862 340.601 467.453 339.727C467.704 339.366 467.955 338.986 468.152 338.587C468.224 338.435 468.296 338.265 468.386 338.113C468.421 338.037 468.529 337.809 468.565 337.79C468.798 337.486 469.085 337.581 469.174 337.619C469.21 337.638 469.605 337.79 469.461 338.265C469.156 339.328 468.583 340.525 468.35 341.722C468.134 342.748 468.188 343.773 469.049 344.609C469.461 345.008 469.945 344.856 470.394 344.552C470.967 344.153 471.487 343.507 471.756 343.014C473.011 340.658 473.603 337.676 472.742 335.111C472.617 334.731 472.473 334.142 472.24 333.629C472.133 333.382 472.007 333.155 471.846 333.041C471.613 332.889 471.541 332.566 471.702 332.319C471.864 332.091 472.186 332.015 472.42 332.186C472.724 332.395 472.993 332.775 473.19 333.212C473.424 333.743 473.585 334.389 473.728 334.788C474.679 337.638 474.069 340.924 472.671 343.507C472.276 344.248 471.415 345.274 470.501 345.692C469.766 346.034 468.995 346.015 468.332 345.35C467.256 344.286 467.077 343.033 467.292 341.741C466.826 342.311 466.306 342.805 465.66 343.071C464.889 343.375 463.975 343.412 463.509 342.558C462.989 341.627 463.061 340.677 463.383 339.765C463.401 339.727 463.419 339.689 463.437 339.651C462.953 340.088 462.433 340.468 461.859 340.677C461.465 340.829 460.909 340.905 460.443 340.81C460.067 340.734 459.726 340.563 459.493 340.24C458.919 339.48 458.919 338.568 459.26 337.638C459.69 336.441 460.658 335.244 461.25 334.598C461.501 334.313 461.77 334.028 462.039 333.743C462.326 333.382 462.648 332.984 462.935 332.566Z" fill="#3D248A"/>
<path d="M383.172 259.563C382.829 259.583 382.446 259.724 382.183 259.947C380.993 260.998 381.255 262.635 382.103 263.807C382.809 264.797 384.121 265.504 385.332 265.504C385.856 265.504 386.321 265.343 386.805 265.241C387.087 265.181 387.249 264.918 387.209 264.655C387.148 264.373 386.886 264.191 386.623 264.251C386.179 264.332 385.776 264.494 385.332 264.494C384.424 264.494 383.475 263.948 382.95 263.221C382.405 262.473 382.123 261.402 382.89 260.715C382.991 260.634 383.132 260.593 383.253 260.573C383.536 260.553 383.737 260.311 383.737 260.028C383.697 259.765 383.455 259.543 383.172 259.563Z" fill="#3D248A"/>
<path d="M468.549 242.348C470.265 240.408 472.364 238.69 473.817 236.528C473.978 236.306 473.917 235.982 473.675 235.821C473.453 235.659 473.13 235.72 472.969 235.962C471.536 238.084 469.478 239.782 467.782 241.681C467.601 241.883 467.621 242.207 467.823 242.389C468.045 242.57 468.368 242.55 468.549 242.348Z" fill="#3D248A"/>
<path d="M472.444 249.058C476.359 248.067 480.335 246.774 484.291 246.026C484.573 245.966 484.755 245.703 484.694 245.44C484.634 245.157 484.371 244.975 484.109 245.036C480.133 245.764 476.137 247.077 472.202 248.067C471.94 248.128 471.758 248.411 471.839 248.694C471.899 248.977 472.182 249.138 472.444 249.058Z" fill="#3D248A"/>
<path d="M471.657 256.333C474.341 256.999 477.167 257.889 479.81 258.737C480.073 258.818 480.355 258.677 480.456 258.414C480.537 258.151 480.396 257.868 480.133 257.767C477.469 256.919 474.644 256.009 471.92 255.342C471.657 255.282 471.375 255.443 471.314 255.706C471.213 255.989 471.375 256.252 471.657 256.333Z" fill="#3D248A"/>
<path d="M249.987 292.167C243.707 272.902 225.255 260.242 208.793 263.902C192.33 267.563 184.068 286.164 190.348 305.429L249.987 292.167Z" fill="#00D5FF"/>
<path d="M200.901 245.69C200.901 245.69 210.771 250.907 218.477 244.542C226.594 237.823 223.066 232.662 220.346 232.198C212.345 230.877 200.901 245.69 200.901 245.69Z" fill="#3D248A"/>
<path d="M228.756 323.538L237.342 363.301L237.822 365.803L241.727 390.042L242.39 395.422L252.376 392.089L251.713 386.709L249.521 361.899L249.138 358.635L243.396 317.745L242.012 309.924L227.336 315.71L228.756 323.538Z" fill="#3D248A"/>
<path d="M200.265 322.424L199.719 356.006L199.518 358.641L194.132 390.431L193.037 395.626L203.343 400.011L204.438 394.816L212.152 364L212.874 359.452L215.839 326.514L216.265 318.426L200.685 314.363L200.265 322.424Z" fill="#3D248A"/>
<path d="M192.586 409.795L196.321 413.667L198.1 415.158L194.615 419.738L192.836 418.247L186.2 413.83L184.365 412.294L187.889 404.32L189.795 400.515L196.124 403.248L194.218 407.053L192.586 409.795Z" fill="#00D5FF"/>
<path d="M195.692 421.85L184.245 413.255C183.904 412.987 183.359 413.155 183.056 413.587C182.744 414.042 182.785 414.61 183.126 414.879L194.574 423.474C194.914 423.742 195.46 423.574 195.762 423.142C196.075 422.687 196.033 422.119 195.692 421.85Z" fill="#3D248A"/>
<path d="M194.99 405.574C194.377 405.428 193.854 405.116 193.25 404.949C192.827 404.838 192.343 405.169 192.156 405.668C191.969 406.166 192.178 406.645 192.602 406.755C193.214 406.901 193.747 407.24 194.368 407.364C194.792 407.475 195.276 407.143 195.463 406.645C195.622 406.162 195.422 405.662 194.99 405.574Z" fill="#3D248A"/>
<path d="M193.47 408.27C192.8 408.226 192.131 408.23 191.471 408.164C191.024 408.119 190.562 408.5 190.439 408.987C190.317 409.475 190.569 409.937 191.006 409.956C191.685 410.027 192.38 410.007 193.05 410.051C193.478 410.091 193.94 409.71 194.054 409.196C194.168 408.729 193.907 408.288 193.47 408.27Z" fill="#3D248A"/>
<path d="M239.492 316.008L217.862 327.238L203.408 325.239L204.647 314.953L238.041 308.961L239.492 316.008Z" fill="#3D248A"/>
<path d="M217.57 243.971C220.175 247.582 220.459 250.816 219.326 253.174C218.196 255.506 215.679 256.914 212.768 256.953C211.774 256.974 210.749 256.618 209.845 256.244C207.724 255.328 206.507 253.715 205.675 251.823C204.78 249.852 204.299 247.556 203.666 245.35C203.579 245.071 203.311 244.932 203.039 245.041C202.767 245.151 202.64 245.444 202.704 245.721C203.355 247.978 203.88 250.302 204.769 252.322C205.697 254.418 207.063 256.19 209.431 257.219C210.447 257.649 211.586 258.036 212.722 258.024C216.058 257.983 218.913 256.294 220.22 253.647C221.5 251.023 221.286 247.369 218.395 243.343C218.232 243.109 217.926 243.093 217.693 243.279C217.442 243.415 217.407 243.737 217.57 243.971Z" fill="#3D248A"/>
<path d="M200.589 245.464C200.589 245.464 208.367 239.155 210.601 236.911C217.21 230.246 206.729 223.397 202.685 232.755C200.439 237.932 200.782 242.123 200.589 245.464Z" fill="#3D248A"/>
<path d="M204.87 251.47C201.699 249.392 197.857 246.387 196.726 242.581C196.178 240.71 197.012 238.108 199.297 239.352C201.081 240.34 201.843 242.305 202.535 244.164C203.276 246.128 204.87 251.47 204.87 251.47Z" fill="#3D248A"/>
<path d="M173.779 344.914C173.572 346.275 173.042 347.532 171.745 348.431C170.951 348.997 170.268 348.862 169.715 348.404C169.033 347.816 168.602 346.618 168.465 345.787C168.043 342.88 168.515 339.407 170.215 336.669C170.449 336.282 170.791 335.649 171.178 335.147C171.487 334.734 171.843 334.392 172.178 334.231C172.431 334.116 172.7 334.23 172.773 334.492C172.845 334.754 172.682 335.072 172.423 335.206C172.245 335.295 172.063 335.507 171.892 335.741C171.533 336.207 171.218 336.804 170.99 337.172C169.43 339.669 169.041 342.808 169.428 345.441C169.514 345.993 169.76 346.743 170.162 347.254C170.466 347.644 170.848 347.884 171.337 347.547C172.364 346.821 172.722 345.799 172.847 344.71C173.003 343.463 172.87 342.117 172.927 340.974C172.941 340.482 173.343 340.376 173.381 340.363C173.472 340.339 173.756 340.292 173.869 340.644C173.879 340.666 173.904 340.919 173.928 341.006C173.961 341.177 173.956 341.362 173.988 341.533C174.04 341.976 174.146 342.409 174.257 342.823C174.512 343.821 174.713 345.056 175.465 345.637C175.59 345.723 175.732 345.813 175.869 345.86C175.996 345.885 176.129 345.891 176.24 345.748C176.757 345.148 176.898 344.455 176.891 343.752C176.88 342.946 176.69 342.126 176.555 341.398C176.471 340.949 176.387 340.5 176.266 340.063C176.232 339.954 176.124 339.809 176.073 339.696C175.993 339.515 175.97 339.366 175.99 339.246C176.021 339.088 176.078 338.955 176.182 338.831C176.253 338.762 176.362 338.681 176.491 338.644C176.566 338.618 176.796 338.58 176.955 338.838C176.99 338.886 177.099 339.196 177.109 339.219C177.28 339.603 177.439 340.026 177.616 340.39C177.893 340.981 178.151 341.691 178.474 342.352C178.751 342.943 179.087 343.503 179.532 343.818C179.683 343.93 179.904 344.035 180.148 344.062C180.313 344.074 180.484 344.066 180.62 343.949C181.085 343.525 181.203 342.909 181.203 342.291C181.197 341.135 180.74 339.912 180.445 339.215C180.31 338.879 180.159 338.54 180.009 338.201C179.814 337.73 179.646 337.223 179.495 336.719C179.456 336.567 179.402 336.412 179.369 336.241C179.345 336.154 179.269 336.015 179.261 335.931C179.232 335.802 179.251 335.682 179.275 335.604C179.316 335.468 179.383 335.357 179.476 335.272C179.568 335.188 179.693 335.109 179.896 335.108C180.688 335.16 181.553 335.309 182.41 335.313C183.183 335.32 183.948 335.182 184.682 334.646C185.562 334.015 185.649 332.609 185.048 331.976C184.597 331.516 183.804 331.464 183.186 331.446C181.973 331.393 180.655 331.464 179.413 331.673C179.146 331.724 178.938 331.518 178.94 331.23C178.943 330.942 179.164 330.656 179.426 330.624C180.721 330.405 182.13 330.311 183.391 330.373C184.206 330.409 185.193 330.541 185.784 331.152C186.784 332.193 186.567 334.48 185.143 335.52C184.22 336.184 183.25 336.385 182.285 336.401C181.677 336.406 181.061 336.326 180.471 336.272C180.613 336.753 180.76 337.215 180.945 337.664C181.08 337.999 181.231 338.338 181.381 338.677C181.701 339.461 182.207 340.859 182.209 342.138C182.208 343.148 181.937 344.105 181.2 344.764C180.9 345.034 180.539 345.17 180.182 345.182C179.723 345.195 179.27 345.024 178.967 344.799C178.538 344.488 178.194 344.008 177.884 343.473C177.888 343.515 177.892 343.557 177.896 343.599C177.901 344.59 177.672 345.576 176.924 346.439C176.247 347.233 175.448 347.035 174.858 346.59C174.326 346.176 174.017 345.579 173.779 344.914Z" fill="#3D248A"/>
<path d="M288.36 263.277C288.782 262.975 289.186 262.655 289.571 262.335C289.861 262.086 290.15 261.819 290.44 261.552C291.193 260.894 295.036 257.386 297.79 255.743C298.556 255.283 299.241 254.986 299.77 254.885C300.261 254.783 300.671 254.879 300.928 255.099C301.221 255.338 301.398 255.684 301.462 256.065C301.541 256.554 301.449 257.095 301.287 257.491C301.124 257.904 300.403 258.78 299.433 259.797C298.23 261.063 296.625 262.614 295.33 263.825C295.368 263.808 295.424 263.79 295.463 263.773C296.374 263.46 297.314 263.401 298.218 263.937C299.049 264.419 298.984 265.34 298.66 266.113C298.377 266.76 297.873 267.277 297.296 267.739C298.579 267.54 299.813 267.719 300.831 268.836C301.468 269.514 301.444 270.291 301.103 271.027C300.662 271.943 299.622 272.778 298.878 273.184C296.263 274.539 292.997 275.109 290.228 274.13C289.838 273.998 289.204 273.827 288.686 273.567C288.261 273.362 287.893 273.086 287.696 272.776C287.553 272.539 287.619 272.214 287.85 272.055C288.08 271.895 288.397 271.972 288.559 272.209C288.666 272.373 288.888 272.503 289.128 272.615C289.609 272.856 290.206 273.009 290.578 273.141C293.104 274.044 296.051 273.488 298.417 272.255C298.914 271.991 299.567 271.494 299.98 270.903C300.294 270.456 300.459 269.97 300.077 269.549C299.258 268.67 298.265 268.602 297.245 268.805C296.074 269.023 294.855 269.585 293.794 269.877C293.339 270.016 293.182 269.616 293.164 269.58C293.13 269.489 293.045 269.198 293.352 268.968C293.371 268.95 293.6 268.844 293.677 268.791C293.83 268.703 294 268.651 294.153 268.563C294.553 268.37 294.936 268.122 295.301 267.874C296.182 267.29 297.29 266.69 297.714 265.702C297.776 265.54 297.837 265.36 297.861 265.198C297.865 265.053 297.851 264.908 297.703 264.834C297.076 264.464 296.416 264.527 295.771 264.753C295.031 265.014 294.303 265.474 293.653 265.844C293.252 266.074 292.85 266.303 292.467 266.569C292.371 266.64 292.253 266.801 292.157 266.89C292.002 267.033 291.868 267.103 291.755 267.12C291.605 267.136 291.474 267.116 291.344 267.042C291.271 266.986 291.18 266.895 291.127 266.768C291.092 266.695 291.024 266.459 291.238 266.209C291.277 266.155 291.547 265.942 291.566 265.924C291.895 265.621 292.261 265.319 292.57 265.016C293.267 264.339 296.57 261.312 298.665 259.099C299.499 258.225 300.141 257.493 300.303 257.133C300.384 256.936 300.448 256.665 300.438 256.394C300.424 256.213 300.392 256.032 300.264 255.922C300.209 255.885 300.153 255.884 300.078 255.883C299.965 255.881 299.851 255.916 299.7 255.95C299.283 256.071 298.806 256.317 298.252 256.635C295.555 258.243 291.789 261.679 291.055 262.32C290.766 262.569 290.476 262.836 290.187 263.103C289.781 263.459 289.339 263.796 288.898 264.116C288.763 264.204 288.629 264.311 288.476 264.399C288.399 264.452 288.283 264.577 288.206 264.612C288.092 264.683 287.978 264.699 287.903 264.698C287.772 264.697 287.66 264.659 287.569 264.585C287.477 264.512 287.386 264.402 287.355 264.185C287.288 263.316 287.299 262.34 287.176 261.416C287.07 260.583 286.831 259.803 286.23 259.18C285.52 258.429 284.214 258.772 283.719 259.615C283.362 260.243 283.429 261.111 283.503 261.781C283.632 263.103 283.89 264.498 284.265 265.769C284.351 266.041 284.192 266.328 283.926 266.415C283.66 266.501 283.364 266.353 283.298 266.081C282.906 264.756 282.613 263.269 282.485 261.894C282.399 261.007 282.377 259.904 282.852 259.079C283.665 257.68 285.801 257.204 286.967 258.413C287.713 259.2 288.04 260.181 288.197 261.214C288.325 261.938 288.342 262.626 288.36 263.277Z" fill="#3D248A"/>
<path d="M191.339 311.713C191.339 311.713 191.526 311.31 191.806 310.705C192.69 308.738 194.921 307.869 196.88 308.798C197.834 309.262 198.894 309.774 199.899 310.237C201.064 310.794 202.36 310.85 203.524 310.365C204.689 309.879 205.571 308.906 206.025 307.649C206.34 306.695 207.077 305.926 207.939 305.599C208.851 305.221 209.837 305.287 210.739 305.754C211.535 306.175 212.332 306.595 213.074 306.968C215.25 308.087 217.791 307.208 218.815 304.939C218.955 304.637 219.092 304.284 219.284 303.98C219.797 302.87 220.738 302.044 221.861 301.759C222.984 301.473 224.235 301.68 225.201 302.393C225.31 302.488 225.415 302.534 225.524 302.63C226.704 303.485 228.166 303.784 229.542 303.391C230.918 302.997 232.007 302.017 232.611 300.656C233.073 299.548 234.014 298.722 235.085 298.438C236.206 298.103 237.405 298.311 238.369 298.975C239.119 299.496 239.869 300.018 240.564 300.491C241.42 301.059 242.462 301.223 243.43 300.942C244.399 300.662 245.19 299.94 245.556 298.984C246.204 297.473 246.803 296.012 246.803 296.012C246.894 295.761 246.773 295.417 246.562 295.325C246.296 295.185 246.043 295.293 245.903 295.595C245.903 295.595 245.304 297.056 244.656 298.567C244.381 299.272 243.786 299.788 243.123 299.959C242.41 300.181 241.68 300.057 241.09 299.629C240.394 299.156 239.644 298.634 238.895 298.113C237.663 297.26 236.203 297.01 234.827 297.404C233.451 297.797 232.313 298.828 231.709 300.19C231.245 301.248 230.355 302.072 229.284 302.356C228.212 302.64 227.013 302.432 226.101 301.767C225.993 301.671 225.887 301.625 225.779 301.529C224.545 300.626 223.03 300.329 221.603 300.724C220.175 301.119 219.035 302.101 218.382 303.513C218.244 303.866 218.104 304.168 217.912 304.473C217.119 306.188 215.139 306.899 213.491 306.01C212.749 305.638 211.899 305.169 211.156 304.797C210.04 304.188 208.745 304.132 207.58 304.617C206.415 305.103 205.531 306.027 205.128 307.282C204.762 308.237 204.079 309.055 203.168 309.433C202.256 309.811 201.221 309.795 200.319 309.329C199.365 308.864 198.306 308.353 197.3 307.89C194.864 306.729 192.073 307.765 190.955 310.236C190.675 310.841 190.489 311.245 190.489 311.245C190.398 311.496 190.467 311.842 190.73 311.932C190.944 312.074 191.248 311.965 191.339 311.713Z" fill="#3D248A"/>
<path d="M198.954 275.843C196.859 273.081 194.755 271.564 192.804 270.884C188.283 269.228 184.526 271.868 183.176 272.805C175.477 278.198 171.276 287.929 169.5 297.721C167.695 307.52 168.305 317.345 170.122 322.984C171.363 326.775 172.818 331.505 175.21 334.85C175.372 335.082 175.681 335.174 175.846 334.992C176.051 334.839 176.045 334.501 175.883 334.269C173.563 331.061 172.179 326.468 170.988 322.742C169.214 317.246 168.666 307.635 170.416 298.073C172.166 288.511 176.232 278.957 183.785 273.705C185.027 272.827 188.509 270.314 192.681 271.849C194.464 272.486 196.378 273.889 198.311 276.418C198.473 276.651 198.771 276.707 198.976 276.554C199.122 276.413 199.146 276.07 198.954 275.843Z" fill="#3D248A"/>
<path d="M201.313 276.097C203.867 279.487 202.823 282.824 200.262 285.98C196.212 290.953 188.412 295.425 183.873 298.93C174.842 305.916 175.379 317.678 175.603 321.498C175.772 324.194 175.912 327.541 177.045 330.05C177.17 330.298 177.457 330.42 177.69 330.292C177.924 330.189 178.034 329.888 177.933 329.639C176.849 327.229 176.737 324.032 176.572 321.461C176.352 317.79 175.779 306.454 184.463 299.747C189.025 296.216 196.894 291.669 201.013 286.645C203.896 283.11 204.951 279.349 202.078 275.537C201.907 275.314 201.598 275.268 201.39 275.446C201.181 275.573 201.142 275.899 201.313 276.097Z" fill="#3D248A"/>
<path d="M225.73 263.317C227.685 259.822 232.629 259.415 236.208 261.078C240.266 262.944 245.985 265.557 256.906 270.545C259.414 271.699 262.772 271.936 266.498 271.529C271.995 270.918 278.378 268.95 284.023 266.473C284.281 266.371 284.392 266.066 284.281 265.828C284.171 265.591 283.875 265.455 283.617 265.557C278.083 268 271.811 269.968 266.387 270.545C262.846 270.918 259.673 270.715 257.311 269.663C246.428 264.675 240.672 262.062 236.614 260.195C232.592 258.363 227.058 258.94 224.844 262.876C224.697 263.114 224.807 263.419 225.029 263.555C225.287 263.623 225.582 263.555 225.73 263.317Z" fill="#3D248A"/>
<path d="M251.988 287.953C262.696 289.48 273.506 286.257 281.639 279.097C285.332 275.839 288.416 273.125 288.416 273.125C288.619 272.955 288.653 272.616 288.45 272.412C288.28 272.208 287.941 272.174 287.738 272.378C287.738 272.378 284.654 275.093 280.961 278.35C273.065 285.306 262.526 288.462 252.123 286.969C252.157 286.969 251.988 287.953 251.988 287.953Z" fill="#3D248A"/>
<path d="M258.392 402.819L264.143 403.069L266.599 402.944L267.8 408.345L265.344 408.47L257.1 409.722L254.569 409.851L250.674 402.09L248.975 398.242L255.652 396.031L257.35 399.88L258.392 402.819Z" fill="#00D5FF"/>
<path d="M269.492 409.357L254.675 410.971C254.224 411.011 253.972 411.481 254.097 411.972C254.233 412.485 254.709 412.845 255.16 412.805L269.978 411.19C270.428 411.15 270.68 410.68 270.555 410.189C270.419 409.676 269.943 409.317 269.492 409.357Z" fill="#3D248A"/>
<path d="M257.063 398.224C256.514 398.521 255.898 398.647 255.339 398.923C254.953 399.122 254.873 399.662 255.137 400.123C255.4 400.584 255.928 400.776 256.314 400.577C256.862 400.28 257.507 400.167 258.044 399.85C258.431 399.651 258.51 399.111 258.246 398.65C257.959 398.225 257.432 398.033 257.063 398.224Z" fill="#3D248A"/>
<path d="M257.885 401.215C257.378 401.617 256.908 402.051 256.389 402.433C256.038 402.69 256.015 403.249 256.317 403.662C256.619 404.075 257.166 404.229 257.49 403.96C258.025 403.57 258.502 403.108 259.009 402.706C259.344 402.456 259.367 401.897 259.037 401.472C258.745 401.079 258.237 400.957 257.885 401.215Z" fill="#3D248A"/>
<path d="M374.59 302.773H397.497C397.759 302.773 398.022 302.566 398.022 302.29C398.022 302.014 397.825 301.808 397.497 301.808H374.59C374.327 301.808 374.065 302.014 374.065 302.29C374.065 302.566 374.262 302.773 374.59 302.773Z" fill="#3D248A"/>
<path d="M374.59 313.273H397.497C397.759 313.273 398.022 313.066 398.022 312.79C398.022 312.514 397.825 312.308 397.497 312.308H374.59C374.327 312.308 374.065 312.514 374.065 312.79C374.065 313.066 374.262 313.273 374.59 313.273Z" fill="#3D248A"/>
<path d="M374.582 323.74H386.036C386.298 323.74 386.528 323.533 386.528 323.257C386.528 322.981 386.298 322.774 386.036 322.774H374.582C374.32 322.774 374.09 322.981 374.09 323.257C374.057 323.533 374.287 323.74 374.582 323.74Z" fill="#3D248A"/>
<path d="M439.804 175.872L448.216 186.999L434.556 187.976L439.804 175.872Z" fill="#3D248A"/>
<path d="M167.317 257.853L175.73 268.979L162.069 269.956L167.317 257.853Z" fill="#3D248A"/>
<path d="M328.171 241.241L368.798 265.802L330.314 286.997L328.171 241.241Z" fill="#FF5784"/>
<path d="M254.41 237.769L258.603 242.204C258.787 242.416 258.787 242.736 258.586 242.913C258.385 243.09 258.066 243.09 257.881 242.878L253.37 238.124C253.186 237.947 253.186 237.627 253.37 237.45L257.881 232.696C258.066 232.484 258.385 232.484 258.586 232.661C258.787 232.838 258.787 233.158 258.603 233.37L254.41 237.769Z" fill="#3D248A"/>
<path d="M244.742 237.769L248.935 242.204C249.119 242.416 249.119 242.736 248.918 242.913C248.717 243.09 248.398 243.09 248.213 242.878L243.702 238.124C243.518 237.947 243.518 237.627 243.702 237.45L248.213 232.696C248.398 232.484 248.717 232.484 248.918 232.661C249.119 232.838 249.119 233.158 248.935 233.37L244.742 237.769Z" fill="#3D248A"/>
<path d="M235.057 237.769L239.249 242.204C239.434 242.416 239.434 242.736 239.233 242.913C239.031 243.09 238.713 243.09 238.528 242.878L234.017 238.124C233.832 237.947 233.832 237.627 234.017 237.45L238.528 232.696C238.713 232.484 239.031 232.484 239.233 232.661C239.434 232.838 239.434 233.158 239.249 233.37L235.057 237.769Z" fill="#3D248A"/>
<path d="M502.718 364.016H273.019C272.529 364.016 272.039 363.592 272.039 363.025V292.601C272.039 292.318 272.284 292.106 272.529 292.106C272.774 292.106 273.019 292.318 273.019 292.601V363.025H502.718V203.986H273.019V264.785C273.019 265.068 272.774 265.281 272.529 265.281C272.284 265.281 272.039 265.068 272.039 264.785V203.986C272.039 203.42 272.529 202.996 273.019 202.996H502.718C503.208 202.996 503.698 203.42 503.698 203.986V363.025C503.698 363.592 503.208 364.016 502.718 364.016Z" fill="#3D248A"/>
<path d="M175.106 282.401C180.37 288.152 185.755 293.603 191.737 298.695C191.977 298.875 192.276 298.875 192.455 298.636C192.635 298.396 192.635 298.096 192.395 297.917C186.473 292.884 181.148 287.493 175.883 281.742C175.704 281.562 175.405 281.502 175.165 281.682C174.926 281.861 174.926 282.161 175.106 282.401Z" fill="#3D248A"/>
<path d="M387.368 276.11C390 274.732 392.034 272.696 394.427 270.898C396.581 269.281 398.854 267.843 400.948 266.166C401.188 265.986 401.188 265.686 401.008 265.447C400.829 265.207 400.53 265.207 400.29 265.387C398.196 267.064 395.923 268.502 393.769 270.12C391.436 271.857 389.462 273.834 386.889 275.212C386.65 275.332 386.53 275.631 386.71 275.871C386.829 276.17 387.129 276.23 387.368 276.11Z" fill="#3D248A"/>
<path d="M465.501 318.765C470.287 320.921 475.252 323.018 479.859 325.534C480.098 325.654 480.397 325.594 480.517 325.354C480.636 325.115 480.577 324.815 480.337 324.695C475.731 322.179 470.705 320.083 465.919 317.926C465.68 317.806 465.381 317.926 465.261 318.166C465.142 318.345 465.261 318.645 465.501 318.765Z" fill="#3D248A"/>
<path d="M242.41 274.014C244.205 270.359 246.299 266.645 248.692 263.35C248.871 263.111 248.811 262.811 248.572 262.631C248.333 262.452 248.034 262.512 247.854 262.751C245.461 266.106 243.367 269.88 241.513 273.535C241.393 273.774 241.513 274.074 241.752 274.194C241.991 274.373 242.29 274.253 242.41 274.014Z" fill="#3D248A"/>
<path d="M218.76 214.651C219.875 212.524 220.687 210.06 222.089 208.161C222.232 207.95 222.184 207.625 221.975 207.402C221.756 207.204 221.465 207.201 221.298 207.395C219.866 209.323 219.05 211.832 217.906 213.988C217.788 214.216 217.88 214.554 218.11 214.727C218.347 214.921 218.642 214.879 218.76 214.651Z" fill="#3D248A"/>
<path d="M211.462 212.052C211.049 207.973 210.879 203.772 210.241 199.702C210.203 199.411 209.959 199.189 209.734 199.198C209.487 199.192 209.331 199.42 209.385 199.708C210.017 203.758 210.197 207.935 210.588 211.998C210.62 212.269 210.837 212.519 211.075 212.549C211.322 212.556 211.484 212.347 211.462 212.052Z" fill="#3D248A"/>
<path d="M204.057 214.405C202.657 211.824 201.027 209.189 199.497 206.702C199.348 206.457 199.072 206.37 198.865 206.503C198.675 206.633 198.648 206.94 198.802 207.206C200.326 209.672 201.933 212.291 203.327 214.852C203.458 215.101 203.747 215.228 203.938 215.099C204.144 214.965 204.189 214.654 204.057 214.405Z" fill="#3D248A"/>
<path d="M363.639 299.475C349.228 299.281 337.224 310.991 336.793 325.662C336.363 340.283 347.67 352.356 362.081 352.55C371.376 352.675 380.132 347.734 385.045 339.585L373.978 332.774C371.546 336.849 367.144 339.294 362.521 339.232C355.34 339.135 349.662 333.098 349.877 325.788C350.092 318.477 356.119 312.598 363.3 312.694L363.688 299.475L363.639 299.475Z" fill="#3D248A"/>
<path d="M323.893 341.529C323.653 339.612 322.816 337.635 322.218 335.838C321.859 334.76 321.38 333.682 321.021 332.663C320.004 330.087 318.748 327.631 317.791 324.995C317.671 324.755 317.85 324.456 318.09 324.336C318.329 324.216 318.628 324.396 318.748 324.636C319.705 327.212 320.961 329.728 321.978 332.244C322.397 333.322 322.816 334.4 323.175 335.479C323.953 337.695 325.029 340.331 325.029 342.788C325.029 343.027 324.91 343.147 324.85 343.207C324.73 343.327 324.551 343.387 324.371 343.327C324.312 343.327 324.192 343.267 324.072 343.147C323.953 343.027 323.773 342.728 323.653 342.608C323.414 342.368 323.175 342.129 322.936 341.889C321.739 340.631 320.782 339.193 319.705 337.875C317.671 335.419 315.637 332.963 313.423 330.626C312.047 329.129 310.611 327.092 308.817 325.953C308.936 326.553 309.235 327.631 309.355 327.99C309.953 330.027 310.671 332.004 311.509 333.981C313.543 338.894 316.295 343.986 317.252 349.198C317.312 349.497 317.192 349.617 317.132 349.677C317.073 349.797 316.953 349.857 316.833 349.857C316.773 349.857 316.654 349.857 316.474 349.797C316.415 349.797 316.295 349.677 316.235 349.557C316.056 349.377 315.816 348.958 315.637 348.778C315.338 348.419 315.039 348.059 314.739 347.7C313.304 346.082 311.868 344.465 310.492 342.847C307.142 338.774 303.672 334.76 300.082 330.866C299.723 330.506 298.527 329.069 297.51 328.35C297.33 328.23 297.21 328.17 297.091 328.05C297.091 328.11 297.151 328.17 297.151 328.23C297.27 328.47 297.39 328.769 297.45 329.009C297.809 330.806 298.287 332.603 298.766 334.4C300.68 341.23 304.748 348.958 304.569 356.147C304.569 356.387 304.449 356.506 304.39 356.566C304.27 356.686 304.09 356.686 303.911 356.686C303.851 356.686 303.731 356.626 303.672 356.506C303.612 356.446 303.492 356.267 303.432 356.147C303.073 355.787 302.296 354.829 301.996 354.469C300.381 352.313 298.766 350.036 297.21 347.88C294.518 344.105 291.826 340.271 289.313 336.317C289.194 336.078 289.254 335.778 289.493 335.599C289.732 335.479 290.031 335.539 290.211 335.778C292.664 339.672 295.356 343.506 298.048 347.281C299.544 349.437 301.219 351.714 302.834 353.87C303.014 354.05 303.313 354.469 303.612 354.829C303.313 348.119 299.603 340.99 297.809 334.7C297.33 332.903 296.792 331.046 296.433 329.248C296.373 329.069 296.253 328.769 296.134 328.53C296.014 328.29 295.954 328.05 295.954 327.871C295.954 327.631 296.014 327.451 296.134 327.271C296.193 327.152 296.373 327.092 296.493 327.032C296.672 326.972 296.911 326.972 297.151 327.032C297.39 327.092 297.749 327.271 298.048 327.511C299.125 328.29 300.441 329.788 300.8 330.207C304.39 334.101 307.859 338.175 311.269 342.248C312.645 343.926 314.021 345.483 315.457 347.101C315.577 347.221 315.637 347.34 315.756 347.46C314.56 342.967 312.227 338.594 310.492 334.4C309.654 332.424 308.936 330.387 308.338 328.29C308.218 327.871 307.859 326.493 307.74 326.013C307.68 325.834 307.5 325.474 307.441 325.295C307.381 325.115 307.381 324.995 307.441 324.935C307.5 324.755 307.56 324.636 307.74 324.576C307.859 324.516 307.979 324.456 308.218 324.576C310.611 325.594 312.406 328.11 314.141 329.967C316.295 332.364 318.389 334.76 320.423 337.276C321.5 338.594 322.457 339.972 323.653 341.23C323.653 341.35 323.773 341.47 323.893 341.529Z" fill="white"/>
<path d="M310.193 236.332C314.859 226.987 323.833 218.36 334.003 215.425C336.456 214.706 338.849 214.766 341.362 214.586C341.661 214.586 341.84 214.346 341.84 214.047C341.84 213.747 341.601 213.567 341.302 213.567C338.73 213.747 336.217 213.687 333.704 214.406C323.294 217.401 314.081 226.268 309.295 235.853C309.176 236.093 309.295 236.392 309.535 236.512C309.774 236.692 310.073 236.572 310.193 236.332Z" fill="white"/>
<path d="M378.215 214.226C374.924 214.226 371.753 215.065 368.882 216.742C366.908 217.88 364.933 219.198 363.258 220.816C362.002 222.014 360.985 223.332 360.267 224.89C356.558 232.797 360.865 239.148 366.668 244.719C369.66 247.595 373.488 250.171 375.163 254.124C376.779 257.959 375.941 262.452 375.343 266.406C375.283 266.705 375.463 266.945 375.762 267.005C376.061 267.064 376.3 266.885 376.36 266.585C377.018 262.452 377.856 257.779 376.121 253.765C374.386 249.691 370.497 246.936 367.386 244C361.882 238.788 357.694 232.797 361.164 225.369C361.822 223.931 362.779 222.733 363.916 221.595C365.531 220.037 367.386 218.779 369.301 217.641C371.993 216.083 375.044 215.304 378.155 215.245C378.454 215.245 378.633 215.005 378.633 214.765C378.753 214.406 378.514 214.226 378.215 214.226Z" fill="white"/>
<path d="M382.163 214.645C380.129 218.419 381.266 222.613 383.838 225.848C386.351 229.023 390.359 231.3 394.008 231.479C397.419 231.599 400.589 230.221 403.222 228.005C407.17 224.71 410.102 219.678 411.298 215.364C411.358 215.125 411.238 214.825 410.939 214.765C410.7 214.705 410.401 214.825 410.341 215.125C409.144 219.258 406.333 224.111 402.564 227.286C400.111 229.383 397.179 230.701 394.008 230.581C390.598 230.461 386.949 228.304 384.556 225.309C382.223 222.373 381.206 218.659 383 215.244C383.12 215.005 383.06 214.705 382.821 214.585C382.582 214.286 382.283 214.406 382.163 214.645Z" fill="white"/>
<path d="M429.007 224.889C418.298 224.83 407.11 233.696 406.393 244.839C406.034 250.23 407.29 255.922 409.982 260.654C410.102 260.894 410.401 260.954 410.64 260.834C410.879 260.714 410.939 260.415 410.82 260.175C408.187 255.622 407.051 250.111 407.35 244.899C408.068 234.235 418.776 225.788 428.947 225.848C429.246 225.848 429.425 225.608 429.425 225.369C429.485 225.129 429.306 224.889 429.007 224.889Z" fill="white"/>
<path d="M307.979 249.392C308.697 246.097 310.91 243.341 313.124 240.885C320.662 232.678 332.328 231.479 342.618 234.714C352.848 237.89 361.643 247.654 366.01 257.18C366.13 257.419 366.429 257.539 366.668 257.419C366.907 257.3 367.027 257 366.907 256.76C362.421 247.055 353.387 237.051 342.917 233.816C332.268 230.521 320.183 231.779 312.406 240.286C310.073 242.862 307.74 245.797 307.022 249.272C306.962 249.571 307.141 249.811 307.381 249.871C307.68 249.811 307.919 249.691 307.979 249.392Z" fill="white"/>
<path d="M516.782 265.765C515.465 274.095 522.605 282.634 530.647 284.022C535.153 284.786 539.798 283.467 544.165 282.426C547.493 281.593 550.543 281.176 552.554 278.26C552.692 278.052 552.623 277.705 552.415 277.566C552.207 277.427 551.86 277.497 551.722 277.705C549.85 280.343 546.938 280.69 543.888 281.454C539.659 282.495 535.222 283.814 530.786 283.05C523.229 281.731 516.505 273.679 517.752 265.904C517.822 265.626 517.614 265.348 517.337 265.348C517.129 265.279 516.851 265.487 516.782 265.765Z" fill="white"/>
<path d="M513.454 311.929C512.553 309.429 511.999 305.611 512.761 302.487C513.246 300.474 514.286 298.739 516.158 297.767C517.683 297.003 519.347 296.656 521.011 296.379C522.675 296.101 524.338 296.17 526.002 296.517C527.943 296.934 529.884 297.698 531.41 298.878C535.43 302.071 536.956 308.388 536.54 313.317C536.54 313.595 536.748 313.803 537.025 313.872C537.302 313.872 537.51 313.664 537.579 313.386C538.065 308.18 536.401 301.516 532.103 298.114C530.439 296.795 528.359 295.962 526.28 295.546C524.546 295.198 522.675 295.129 520.941 295.407C519.139 295.684 517.406 296.101 515.811 296.934C513.662 298.045 512.484 300.058 511.929 302.349C511.167 305.681 511.721 309.707 512.692 312.345C512.761 312.623 513.038 312.762 513.316 312.623C513.385 312.484 513.524 312.206 513.454 311.929Z" fill="white"/>
<path d="M550.058 303.321C547.077 303.598 542.917 302.418 540.214 300.058C538.481 298.531 537.302 296.518 537.579 294.157C537.649 293.741 537.857 293.394 538.134 293.047C538.689 292.422 539.382 291.936 539.867 291.519C543.333 288.743 546.73 287.84 550.82 289.853C551.098 289.992 551.375 289.853 551.514 289.645C551.652 289.367 551.514 289.09 551.306 288.951C546.869 286.729 543.125 287.701 539.313 290.756C538.827 291.172 537.995 291.728 537.441 292.422C537.025 292.908 536.678 293.463 536.609 294.088C536.332 296.865 537.579 299.156 539.59 300.891C542.501 303.39 546.938 304.709 550.127 304.431C550.405 304.431 550.613 304.154 550.613 303.876C550.543 303.46 550.335 303.321 550.058 303.321Z" fill="white"/>
<path d="M484.892 300.267C490.577 299.989 493.766 296.657 495.222 292.075C497.44 285.48 496.123 276.247 494.598 270.694C494.529 270.416 494.251 270.277 493.974 270.347C493.697 270.416 493.558 270.694 493.627 270.972C495.153 276.386 496.4 285.341 494.251 291.728C492.865 295.893 490.022 298.948 484.823 299.225C484.546 299.225 484.338 299.503 484.338 299.781C484.338 300.058 484.615 300.267 484.892 300.267Z" fill="white"/>
<path d="M341.182 355.967C340.943 356.207 340.704 356.447 340.524 356.626C339.148 357.645 337.772 358.603 336.396 359.562C332.866 362.018 329.636 364.834 325.986 367.05C325.448 367.35 324.91 367.889 324.371 368.189C323.893 368.428 323.414 368.608 322.876 368.488C322.636 368.428 322.457 368.308 322.397 368.189C322.277 368.009 322.217 367.769 322.277 367.47C322.337 367.23 322.517 366.93 322.696 366.631C322.935 366.271 323.234 365.912 323.294 365.612C324.072 363.755 324.85 361.838 325.807 360.041C328.021 355.728 330.533 351.594 332.747 347.281C332.866 347.041 333.166 346.921 333.405 347.041C333.644 347.161 333.764 347.46 333.644 347.7C331.431 352.013 328.918 356.147 326.704 360.46C325.807 362.258 325.029 364.115 324.251 365.972C324.072 366.331 323.713 366.871 323.414 367.35C323.414 367.41 323.354 367.41 323.354 367.47C323.593 367.41 323.893 367.29 324.132 367.11C324.61 366.811 325.029 366.451 325.448 366.152C329.097 363.935 332.328 361.119 335.798 358.663C337.174 357.705 338.55 356.746 339.926 355.728C340.225 355.488 340.763 354.949 341.122 354.589C341.362 354.35 341.601 354.23 341.78 354.23C342.02 354.17 342.199 354.29 342.319 354.41C342.379 354.53 342.498 354.649 342.439 354.949C341.84 358.543 340.464 362.018 339.088 365.373C338.789 366.032 338.49 366.751 338.191 367.41C341.601 365.553 344.832 362.497 347.763 360.101C348.84 359.202 349.917 358.244 350.934 357.225C351.173 356.986 351.592 356.387 351.891 356.027C352.13 355.788 352.31 355.608 352.43 355.548C352.669 355.488 352.848 355.548 352.968 355.668C353.028 355.728 353.207 355.907 353.147 356.207C353.088 358.723 351.652 362.018 350.814 364.295C350.216 365.912 349.677 367.53 348.96 369.087C348.84 369.327 348.541 369.447 348.302 369.327C348.062 369.207 347.943 368.907 348.062 368.668C348.78 367.17 349.319 365.553 349.917 363.995C350.575 362.138 351.652 359.622 352.071 357.465C351.891 357.645 351.771 357.884 351.652 357.944C350.635 358.963 349.558 359.921 348.421 360.88C345.071 363.636 341.362 367.17 337.473 368.907C337.234 369.027 337.054 368.967 336.994 368.907C336.815 368.847 336.755 368.728 336.695 368.488C336.695 368.428 336.695 368.308 336.755 368.129C336.815 367.949 337.054 367.649 337.114 367.47C337.473 366.631 337.832 365.792 338.191 364.954C339.328 362.198 340.524 359.083 341.182 355.967Z" fill="white"/>
<path d="M316.355 262.332C314.5 264.189 313.184 266.346 311.868 268.622C303.612 283.539 312.825 299.534 325.508 308.101C325.747 308.281 326.046 308.221 326.226 307.981C326.405 307.742 326.345 307.442 326.106 307.263C313.842 298.995 304.808 283.539 312.825 269.101C314.021 266.885 315.338 264.788 317.132 262.991C317.312 262.811 317.312 262.452 317.132 262.272C316.893 262.152 316.534 262.152 316.355 262.332Z" fill="#3D248A"/>
<path d="M325.209 307.143L323.713 299.954C323.653 299.655 323.833 299.415 324.132 299.355C324.431 299.295 324.67 299.475 324.73 299.775L326.346 307.563C326.405 307.682 326.346 307.862 326.226 307.982C326.106 308.102 325.987 308.162 325.867 308.162H317.432C317.132 308.162 316.953 307.922 316.953 307.682C316.953 307.383 317.192 307.203 317.432 307.203H325.209V307.143Z" fill="#3D248A"/>
<path d="M396.463 196.242C396.796 186.296 405.448 178.198 414.327 177.028C419.481 176.389 424.313 177.759 429.301 179.695C429.538 179.76 429.827 179.655 429.943 179.398C429.983 179.147 429.861 178.826 429.612 178.679C424.549 176.749 419.48 175.315 414.176 175.965C404.921 177.164 395.864 185.622 395.526 196.065C395.497 196.398 395.758 196.626 395.995 196.691C396.157 196.761 396.435 196.575 396.463 196.242Z" fill="#3D248A"/>
<path d="M395.587 195.551L402.201 191.01C402.401 190.834 402.72 190.971 402.903 191.2C403.085 191.429 402.983 191.76 402.784 191.937L395.685 196.756C395.549 196.847 395.401 196.858 395.315 196.784C395.155 196.715 395.07 196.641 394.973 196.486L391.255 187.792C391.146 187.557 391.248 187.226 391.459 187.129C391.67 187.033 391.989 187.17 392.098 187.405L395.587 195.551Z" fill="#3D248A"/>
<path d="M531.643 316.763C527.224 344.425 519.07 374.498 500.419 398.744C478.492 427.331 439.331 434.191 421.318 412.203C421.186 412.011 420.838 412.015 420.623 412.212C420.408 412.408 420.377 412.718 420.51 412.91C438.85 435.32 478.758 428.373 501.104 399.278C519.858 374.875 528.104 344.53 532.625 316.712C532.656 316.402 532.523 316.21 532.236 316.252C531.95 316.295 531.622 316.531 531.643 316.763Z" fill="#3D248A"/>
<path d="M421.819 409.121L423.045 422.371C423.066 422.604 422.859 422.919 422.631 423C422.342 423.043 422.156 422.928 422.073 422.656L420.734 408.784C420.723 408.667 420.765 408.471 420.868 408.314C420.972 408.156 421.085 408.116 421.261 408.114L431.707 408.134C431.945 408.17 432.142 408.401 432.1 408.597C432.069 408.91 431.852 409.107 431.5 409.112L421.819 409.121Z" fill="#3D248A"/>
</svg>
