<svg width="83" height="58" viewBox="0 0 83 58" fill="none" xmlns="http://www.w3.org/2000/svg">
<path d="M49.2057 26.8127H2.07327V55.8833H49.2057V26.8127Z" fill="#3D248A"/>
<path d="M51.2789 58.0001H0V24.6959H51.2789V58.0001ZM4.14654 53.7665H47.1324V28.9295H4.14654V53.7665Z" fill="#3D248A"/>
<path d="M80.9267 2.11682H25.6395V55.8832H80.9267V2.11682Z" fill="#FF5784"/>
<path d="M83 58H23.5662V0H83V58ZM27.7127 53.7664H78.8534V4.23358H27.7127V53.7664Z" fill="#FF5784"/>
<path d="M58.4663 10.7957H32.8959V17.2166H58.4663V10.7957Z" fill="white"/>
<path d="M58.4663 25.7543H32.8959V32.1752H58.4663V25.7543Z" fill="white"/>
<path d="M58.4663 40.7834H32.8959V47.2044H58.4663V40.7834Z" fill="white"/>
<path d="M75.8126 10.7957H66.8285V17.2166H75.8126V10.7957Z" fill="white"/>
<path d="M75.8126 25.7543H66.8285V32.1752H75.8126V25.7543Z" fill="white"/>
<path d="M75.8126 40.7834H66.8285V47.2044H75.8126V40.7834Z" fill="white"/>
</svg>
