<svg width="92" height="62" viewBox="0 0 92 62" fill="none" xmlns="http://www.w3.org/2000/svg">
<ellipse cx="45.5" cy="58.5" rx="21.5" ry="3.5" fill="#E1E1E1"/>
<path d="M43.6186 5.21741C44.254 3.45533 46.746 3.45534 47.3814 5.21741L51.1847 15.7645C51.4628 16.5356 52.1831 17.0589 53.0023 17.0851L64.2085 17.443C66.0807 17.5028 66.8508 19.8728 65.3713 21.0217L56.5157 27.8981C55.8683 28.4008 55.5931 29.2476 55.8214 30.0348L58.9439 40.8031C59.4656 42.6021 57.4495 44.0669 55.8997 43.0148L46.6233 36.7176C45.9452 36.2572 45.0548 36.2572 44.3767 36.7176L35.1003 43.0148C33.5505 44.0669 31.5344 42.6021 32.0561 40.8031L35.1786 30.0348C35.4069 29.2476 35.1317 28.4008 34.4843 27.8981L25.6287 21.0217C24.1492 19.8728 24.9193 17.5028 26.7915 17.443L37.9977 17.0851C38.8169 17.0589 39.5372 16.5356 39.8153 15.7645L43.6186 5.21741Z" fill="#FFC700"/>
<path d="M73 9L79 3M73 37.5L79 43.5M73 24H91.5" stroke="#3D248A" stroke-width="2"/>
<path d="M18.5 9L12.5 3M18.5 37.5L12.5 43.5M18.5 24H0" stroke="#3D248A" stroke-width="2"/>
</svg>
